<svg width="246" height="244" viewBox="0 0 246 244" fill="none" xmlns="http://www.w3.org/2000/svg">
<path d="M227.339 171.174C239.609 115.858 236.113 101.53 230.366 99.0214C222.64 95.6427 209.477 113.142 202.265 108.896C193.994 104.023 208.111 79.1048 197.725 67.8827C187.793 57.1677 157.82 61.428 143.798 77.754C132.069 91.4316 137.044 107.118 129.367 109.653C118.255 113.327 108.342 80.2663 79.2426 68.6432C53.8927 58.5147 16.7343 65.764 7.84666 86.1119C-2.70193 110.274 31.0172 142.842 35.1905 146.872C51.0134 162.15 68.4859 168.847 79.2426 171.934L227.339 171.174Z" fill="#D7EBFF"/>
<path d="M222.352 231.415C234.619 176.1 231.126 161.768 225.379 159.263C217.653 155.884 204.486 173.383 197.279 169.134C189.008 164.265 203.124 139.346 192.719 128.124C182.791 117.409 152.814 121.666 138.796 137.996C127.067 151.669 132.042 167.36 124.365 169.895C113.253 173.569 103.34 140.504 74.237 128.881C48.8871 118.756 11.7286 126.006 2.84481 146.35C-7.70755 170.515 26.0154 203.08 30.1887 207.11C46.0078 222.392 63.4841 229.088 74.237 232.176L222.352 231.415Z" fill="#C2DCFB"/>
<path d="M64.7818 47.2094C64.744 47.3494 64.7061 47.4932 64.6645 47.6369C60.9301 42.6389 57.4417 37.4213 54.1462 32.0525L54.2711 32.0714C54.3523 32.0839 54.4353 32.0696 54.5077 32.0307C54.58 31.9918 54.6377 31.9303 54.6721 31.8557C55.84 29.1921 57.0192 26.531 58.2098 23.8724C59.027 22.0488 59.8543 20.2301 60.6918 18.4166C62.5836 19.1506 62.9127 19.824 64.3732 24.5043C65.9093 29.4229 66.072 30.0699 68.8908 30.4483L67.7557 35.1247L64.7818 47.2094Z" fill="#C2DCFB"/>
<path d="M69.6323 30.5391L71.2441 30.7093C76.4238 31.2844 73.2002 55.2154 73.0943 56.5207C73.0891 56.6131 73.0633 56.7033 73.0188 56.7844C72.9743 56.8656 72.9121 56.9358 72.837 56.9899C69.9577 54.5041 67.5135 51.428 65.2472 48.4201C66.7101 42.4572 68.1718 36.4969 69.6323 30.5391Z" fill="#C2DCFB"/>
<path d="M55.0467 29.1581C54.7932 29.7332 54.3732 30.3764 54.2408 30.9894C54.2123 31.1278 54.1514 31.2574 54.063 31.3677C53.9509 31.3753 53.8383 31.3753 53.7262 31.3677C50.9718 26.8502 48.346 22.238 45.8337 17.5729C45.8845 17.5596 45.9317 17.535 45.9717 17.501C46.0116 17.4669 46.0434 17.4242 46.0645 17.3761L49.2313 7.36487C51.5469 7.9551 51.5015 8.34859 54.2484 10.9365C57.4757 13.9634 54.6267 16.2335 58.5578 17.6561C59.1103 17.8567 59.5794 18.0345 59.9918 18.1593C59.1948 19.8796 58.4091 21.6049 57.6347 23.3352C56.7645 25.2775 55.9018 27.2184 55.0467 29.1581Z" fill="#C2DCFB"/>
<path d="M46.1402 14.6709C45.8934 15.2446 45.7045 15.8416 45.5764 16.4529C45.57 16.5864 45.531 16.7163 45.4629 16.8313C42.5761 11.4435 39.8368 5.99143 37.1883 0.562034C39.4925 0.153411 42.3528 1.79169 42.4436 4.64449C42.5988 9.62742 43.9571 6.1579 47.8163 7.0319L48.5238 7.19082C48.3233 7.83402 48.119 8.481 47.9147 9.12421L46.1402 14.6709Z" fill="#C2DCFB"/>
<path d="M44.7252 16.7329C43.9685 16.5513 43.1058 16.207 42.5383 16.0708L36.6926 14.6708L35.3268 14.3417C35.4554 12.4196 34.7138 9.60467 34.309 5.28764C34.0668 2.75266 35.0657 1.32626 36.4543 0.773865C37.327 2.55213 38.2099 4.31779 39.1028 6.07083C40.9441 9.64755 42.8183 13.2016 44.7252 16.7329Z" fill="#C2DCFB"/>
<path d="M55.5158 35.4009C58.1076 39.5628 60.8129 43.6907 63.7376 47.6369C62.909 47.3191 61.9063 47.1072 61.2366 46.8575L44.5549 40.6525C44.9207 39.329 45.007 37.9439 44.8084 36.5852C44.0214 31.9352 41.214 35.329 39.6476 31.1179C39.5364 30.8117 39.4416 30.4998 39.3638 30.1834L53.416 31.9806C54.1071 33.1182 54.8071 34.2583 55.5158 35.4009Z" fill="#C2DCFB"/>
<path d="M64.7138 48.9347C65.0694 49.4039 65.4251 49.8693 65.7883 50.3308C67.6801 52.7258 69.7005 55.1662 72.0047 57.2358C67.7217 57.5423 52.088 50.4254 47.3699 46.8159C44.3431 44.4966 44.1349 43.0324 44.4111 41.3941L64.6722 48.9309L64.7138 48.9347Z" fill="#C2DCFB"/>
<path d="M53.0037 31.2806C52.3567 31.1671 51.6794 30.9893 51.2178 30.9288L44.8765 30.1191L39.2012 29.3926C38.8947 26.7442 40.6314 26.1577 37.2375 24.3492C33.1816 22.1888 31.286 18.6738 33.8702 16.9675C34.2074 16.7577 34.4989 16.4821 34.7271 16.157C34.9553 15.8319 35.1155 15.4641 35.1982 15.0757L45.0998 17.4593C47.6449 22.1181 50.2795 26.7252 53.0037 31.2806Z" fill="#C2DCFB"/>
<path d="M74.6607 58.3028C75.5315 59.0609 76.453 59.7587 77.4189 60.3913C77.8199 60.6524 77.3432 61.2275 76.9459 60.9702C75.8447 60.2446 74.8011 59.435 73.8245 58.5487C74.1205 58.5451 74.4098 58.46 74.6607 58.3028Z" fill="white" stroke="#252525" stroke-miterlimit="10"/>
<path d="M156.526 118.703H140.067V133.603H156.526V118.703Z" fill="#D1D1D1"/>
<path d="M60.7296 36.536V149.554H175.674V36.536H60.7296ZM132.061 71.2198H127.619V52.268H103.495V47.8261H131.728V47.9245H132.069L132.061 71.2198ZM87.8843 93.7887V90.41H110.207V94.8519H92.3338V100.334H116.06V116.963H111.63V104.776H87.8389V100.334H87.9032V93.7887H87.8843ZM115.883 120.584V125.026H90.9111V120.584H115.883ZM108.433 69.1275V58.7303H120.661V69.154L108.433 69.1275ZM160.816 71.3106H135.735V47.7996H160.816V71.3106ZM160.06 75.3704V85.8016H147.839V75.3969L160.06 75.3704ZM135.754 114.383H160.835V137.905H135.754V114.394V114.383ZM137.911 109.464V99.0592H150.135V109.464H137.911ZM135.546 91.6813H135.629V80.2814H111.834V75.8395H140.071V91.6888H160.54V109.437H156.098V96.1307H135.546V91.6813ZM126.064 127.247H130.548V137.655H126.087L126.064 127.247ZM125.656 91.5905H130.101V113.157H125.656V91.5905ZM108.452 127.89H120.68V138.295H108.452V127.89ZM76.3974 122.907H80.8393V133.474H101.414V137.916H76.4012L76.3974 122.907ZM75.5612 99.3732H80.0031V111.56H100.533V116.002H75.5612V99.3732ZM75.5612 75.8395H100.533V80.2814H80.0031V92.4682H75.5612V75.8206V75.8395ZM75.5612 47.7996H100.658V71.322H75.5763V47.7996H75.5612Z" fill="white" stroke="#306AE0" stroke-miterlimit="10"/>
<path d="M156.526 52.1091H140.067V67.0088H156.526V52.1091Z" fill="#E6E6E6"/>
<path d="M96.333 52.1091H79.8745V67.0088H96.333V52.1091Z" fill="#D1D1D1"/>
<path d="M135.758 71.322H160.839V47.7996H135.758V71.322ZM140.067 67.0087V52.128H156.53V67.0276L140.067 67.0087Z" fill="#1A2851"/>
<path d="M160.839 114.394H135.758V137.916H160.839V114.394ZM156.53 133.603H140.067V118.719H156.53V133.603Z" fill="#1A2851"/>
<path d="M100.658 47.7996H75.5763V71.322H100.658V47.7996ZM96.3481 67.0087H79.8858V52.128H96.3481V67.0087Z" fill="#1A2851"/>
<path d="M135.633 80.2852H111.838V75.8395H140.075V77.4627V80.2852V91.6888H160.544V94.4319V96.1307V109.437H156.102V96.1307H135.55V91.6888H135.633V80.2852Z" fill="#1A2851"/>
<path d="M127.627 52.268H103.495V47.8261H131.728V47.9245H132.069V71.2198H127.627V52.268Z" fill="#1A2851"/>
<path d="M100.537 80.2852H80.0069V92.4682H75.565V80.2852V77.4627V75.8395H100.537V80.2852Z" fill="#1A2851"/>
<path d="M115.905 120.584H90.9339V125.026H115.905V120.584Z" fill="#1A2851"/>
<path d="M80.0069 111.56H100.537V116.002H75.565V114.383V111.56V99.3732H80.0069V111.56Z" fill="#1A2851"/>
<path d="M110.219 90.41V94.8519H92.3338V100.334H116.061V101.954V104.776V116.963H111.619V104.776H87.8275V100.334H87.8919V93.7887V90.41H110.219Z" fill="#1A2851"/>
<path d="M130.101 91.5905H125.659V113.172H130.101V91.5905Z" fill="#1A2851"/>
<path d="M80.8431 133.474H101.414V137.916H80.8431H76.5979H76.4012V122.907H80.8431V133.474Z" fill="#1A2851"/>
<path d="M160.063 75.3817H147.839V85.7865H160.063V75.3817Z" fill="#1A2851"/>
<path d="M150.139 99.0743H137.914V109.479H150.139V99.0743Z" fill="#1A2851"/>
<path d="M120.68 58.7303H108.456V69.1351H120.68V58.7303Z" fill="#1A2851"/>
<path d="M120.68 127.89H108.456V138.295H120.68V127.89Z" fill="#1A2851"/>
<path d="M130.529 127.247H126.068V137.651H130.529V127.247Z" fill="#1A2851"/>
<path d="M84.8347 62.5895H91.2706V56.1537H84.8347V62.5895Z" fill="#1A2851"/>
<path d="M145.08 129.373H151.516V122.937H145.08V129.373Z" fill="#1A2851"/>
<path d="M145.08 61.9501H151.516V55.5143H145.08V61.9501Z" fill="#1A2851"/>
<path d="M111.842 86.3767H118.399V81.9348H111.842V86.3767Z" fill="#1A2851"/>
<path d="M132.545 243.5C194.757 243.5 245.19 239.297 245.19 234.113C245.19 228.929 194.757 224.726 132.545 224.726C70.3337 224.726 19.9011 228.929 19.9011 234.113C19.9011 239.297 70.3337 243.5 132.545 243.5Z" fill="#DDEAFC"/>
<path d="M209.965 117.114C209.965 117.114 198.531 99.6153 202.776 92.8352C207.021 86.0551 215.572 99.8424 217.123 93.0433C218.675 86.2443 211.263 86.1005 212.663 78.4615C214.062 70.8225 216.874 68.8286 219.715 72.6462C222.557 76.4638 226.454 76.1081 224.422 67.4854C222.39 58.8627 224.044 57.7731 227.468 57.8563C230.892 57.9395 234.467 61.3031 231.448 69.3961C228.429 77.4891 235.61 79.9711 238.501 76.8573C241.391 73.7434 248.073 78.8474 243.041 84.5076C238.009 90.1678 230.476 94.7459 237.566 98.1019C244.656 101.458 242.715 106.804 236.567 109.653C230.419 112.502 212.273 122.502 209.965 117.114Z" fill="#306AE0"/>
<path d="M232.148 104.473L224.759 106.611L219.462 108.125C218.818 108.31 217.876 108.764 217.089 108.915C220.612 103.903 223.426 98.4282 225.451 92.6461C225.478 92.6379 225.503 92.6265 225.527 92.612L238.156 83.8153C238.535 83.5391 238.111 82.9375 237.717 83.2099L225.837 91.4769C227.801 85.422 228.763 79.087 228.686 72.7219C228.639 68.9084 228.231 65.1078 227.468 61.3712C227.373 60.9059 226.631 60.9929 226.711 61.4583C228.283 69.1649 228.329 77.1048 226.847 84.8292L219.658 77.073C219.337 76.7249 218.731 77.1638 219.057 77.5157L226.662 85.7259C226.325 87.3377 225.928 88.9382 225.459 90.5197C223.491 96.9984 220.486 103.115 216.56 108.632C216.312 108.188 216.041 107.758 215.75 107.341L212.992 102.828L208.83 96.1118C208.58 95.6994 207.978 96.1421 208.228 96.5507L216.106 109.26C210.786 116.649 204.04 123.054 196.647 128.48C196.584 128.544 196.546 128.629 196.54 128.718C196.533 128.808 196.559 128.897 196.612 128.969C196.665 129.041 196.743 129.093 196.83 129.113C196.917 129.134 197.009 129.123 197.089 129.082C204.569 123.588 211.259 117.069 216.537 109.683C216.597 109.695 216.659 109.695 216.719 109.683L232.42 105.166C232.882 105.037 232.606 104.341 232.148 104.473Z" fill="#FFFDFC"/>
<path d="M135.758 17.902V73.0019H191.755V17.902H135.758ZM143.283 25.7075H184.24V65.1964H143.283V25.7075Z" fill="#C2DCFB"/>
<path d="M143.283 25.7075V65.1964H184.24V25.7075H143.283ZM148.013 30.1115H179.511V60.7923H148.013V30.1115Z" fill="#D1D1D1"/>
<path d="M148.013 30.1115V60.7923H179.511V30.1115H148.013ZM153.113 34.3945H174.411V56.5093H153.113V34.3945Z" fill="#C2DCFB"/>
<path d="M153.113 34.3945V56.5094H174.411V34.3945H153.113ZM157.101 39.0294H170.423V51.8934H157.101V39.0294Z" fill="#D1D1D1"/>
<path d="M170.423 39.0294H157.101V51.8745H170.423V39.0294Z" fill="#C2DCFB"/>
<path opacity="0.2" d="M49.0535 235.543C67.5653 235.543 82.5721 234.239 82.5721 232.63C82.5721 231.021 67.5653 229.716 49.0535 229.716C30.5417 229.716 15.5349 231.021 15.5349 232.63C15.5349 234.239 30.5417 235.543 49.0535 235.543Z" fill="#252525"/>
<path d="M35.6863 210.746L32.3378 221.4L28.1569 219.251L29.7612 210.878L35.6863 210.746Z" fill="#FBC7BA"/>
<path d="M62.2355 217.749L61.7096 223.194L55.5764 224.726L55.4402 217.749H62.2355Z" fill="#FBC7BA"/>
<path d="M30.9795 231.468C30.9795 231.468 33.5825 230.333 33.5825 228.063C33.5825 225.793 34.1463 221.283 33.5825 221.396C33.0188 221.51 29.5114 217.325 28.1569 217.779C26.8024 218.233 24.8766 222.698 24.4263 224.59C23.9761 226.482 28.7207 231.234 30.9795 231.468Z" fill="#1A2851"/>
<path d="M72.243 232.91C72.243 232.91 64.2975 223.451 61.7096 223.194C59.1216 222.936 56.5752 223.644 55.5764 224.707C54.5775 225.77 54.4829 226.92 54.2521 228.831C54.0213 230.742 55.2245 231.075 57.6914 231.408C60.1583 231.741 73.1965 234.022 72.243 232.91Z" fill="#1A2851"/>
<path d="M59.3108 121.231C59.3108 121.231 71.929 144.416 67.5854 183.572C63.2419 222.728 62.9733 219.138 62.9733 219.138C61.8382 220.541 58.7659 220.746 54.7251 220.352C54.7251 220.352 55.5953 148.843 46.598 134.636L41.7815 121.499L59.3108 121.231Z" fill="#1A2851"/>
<path d="M52.7388 118.802C52.7388 118.802 59.4659 171.582 35.6559 215.861C26.7873 217.719 26.9159 213.871 26.9537 212.936C26.9537 212.936 36.9386 167.084 35.0468 151.707C33.155 136.331 33.155 125.423 38.2818 120.224C43.4085 115.026 52.7388 118.802 52.7388 118.802Z" fill="#1A2851"/>
<path d="M68.3195 102.688L92.3073 107.228C92.3073 107.228 96.0909 109.354 95.9471 112.283C95.8033 115.211 90.7182 116.225 90.5555 113.834C90.4668 112.461 90.286 111.096 90.0145 109.748L68.1871 107.792L68.3195 102.688Z" fill="#FBC7BA"/>
<path d="M57.9033 81.8629C57.9033 81.8629 56.4353 90.5651 57.8466 93.6601C59.2578 96.755 67.5628 109.248 67.5628 109.248C67.5628 109.248 72.89 102.597 72.89 102.37C72.89 102.143 69.2654 100.501 66.0985 92.9828C62.9317 85.4649 59.5341 81.0571 58.5314 80.9171C57.5288 80.7771 57.9033 81.8629 57.9033 81.8629Z" fill="#68A8F2"/>
<path d="M55.1943 86.267C55.1943 86.267 60.6729 87.5799 58.7244 79.2675C56.7758 70.955 54.1841 71.0874 55.183 64.3792C56.1818 57.6709 58.293 53.4069 55.4326 52.3059C52.5723 51.2049 50.0335 48.7493 46.3067 54.75C42.5799 60.7508 40.1357 66.1764 39.4471 71.3977C38.7585 76.619 36.0797 76.1195 34.7744 77.8524C33.469 79.5853 30.0563 83.2137 35.3835 84.519C40.7108 85.8243 55.1943 86.267 55.1943 86.267Z" fill="#1A2851"/>
<path d="M53.8889 78.7415C53.8889 78.7415 62.3641 77.7237 62.8181 96.2631C63.2722 114.803 62.9317 122.691 59.3146 123.717C55.6975 124.742 36.3786 126.554 35.2359 123.614C34.0933 120.675 38.2893 110.391 37.9488 101.462C37.6082 92.5325 36.8137 90.724 36.3672 86.9934C35.9208 83.2628 37.7255 81.4543 40.3249 79.8728C42.9242 78.2912 45.0694 78.7377 45.0694 78.7377L53.8889 78.7415Z" fill="#306AE0"/>
<path d="M51.7853 70.0621C51.7853 70.0621 53.2987 81.25 52.0918 82.6575C50.8848 84.065 50.9189 85.6049 48.9741 82.8921C47.0294 80.1793 45.7695 78.5978 45.7695 78.5978C45.7695 78.5978 48.2212 71.4771 48.5088 70.0318C48.7963 68.5865 51.7853 70.0621 51.7853 70.0621Z" fill="#FBC7BA"/>
<path d="M58.5427 56.1045C58.5427 56.1045 62.523 62.2566 57.3206 70.1945C52.1182 78.1324 47.105 67.0049 46.9461 66.3693C46.7872 65.7337 45.9056 54.9316 51.5166 54.7954C57.1276 54.6592 57.4341 55.0338 58.5427 56.1045Z" fill="#FBC7BA"/>
<path d="M62.7349 61.4961C62.7349 61.7798 60.2756 64.2127 58.6525 60.361C55.077 63.2971 49.8103 65.8207 45.9737 63.9894C42.1372 62.1582 49.0573 52.8809 50.5405 52.8242C52.0237 52.7674 63.049 49.2033 62.7349 61.4961Z" fill="#1A2851"/>
<path d="M49.8064 117.477L75.0353 115.476C75.0353 115.476 79.6664 113.622 81.3273 114.53C82.9883 115.438 78.8642 116.569 76.8325 118.37C74.8007 120.171 50.374 122.464 50.374 122.464L49.8064 117.477Z" fill="#FBC7BA"/>
<path d="M50.1697 123.07C47.1428 122.373 40.4648 104.909 39.2314 100.747C37.2412 93.0017 32.9431 89.9371 36.0607 83.6526C36.9612 82.1392 37.8201 80.8301 39.6551 82.8429C46.8439 90.7203 54.9899 115.06 53.397 116.967C51.3917 119.354 53.2154 123.77 50.1697 123.07Z" fill="#68A8F2"/>
<path d="M237.051 228.57C231.754 221.54 225.988 214.817 220.449 207.972C212.168 197.747 203.881 187.522 195.587 177.299L189.95 170.341C189.03 169.206 187.434 170.822 188.346 171.946L203.62 190.78L209.575 198.128L182.159 206.875C181.198 207.182 180.044 207.409 178.989 207.745C179.042 198.504 179.143 189.259 179.291 180.012C179.327 177.704 179.363 175.396 179.401 173.088C179.428 171.628 177.157 171.628 177.131 173.088C176.927 184.711 176.722 196.338 176.677 207.965L176.598 207.946L160.661 203.591L148.554 200.281L158.47 186.542C159.757 184.759 161.042 182.978 162.326 181.2C163.185 180.016 161.214 178.881 160.366 180.065L146.06 199.883C145.584 200.04 145.169 200.345 144.877 200.753C144.586 201.161 144.431 201.652 144.437 202.153C140.699 207.324 136.962 212.495 133.226 217.666L129.371 223.005C128.516 224.189 130.483 225.324 131.331 224.14L145.746 204.174C145.842 204.215 145.941 204.249 146.041 204.276L174.282 212.002C175.005 212.199 175.848 212.532 176.677 212.721C176.677 216.681 176.7 220.641 176.745 224.601C176.783 227.53 176.476 230.882 177.184 233.757C177.532 235.176 179.723 234.575 179.371 233.152C178.924 231.328 179.068 228.014 179.03 225.725C178.962 221.381 178.962 217.023 178.977 212.687C179.848 212.464 180.722 212.081 181.543 211.82L198.274 206.497L211.319 202.335C211.741 202.209 212.117 201.963 212.401 201.627C217.84 208.339 223.273 215.054 228.701 221.771C230.187 223.61 231.671 225.451 233.154 227.295C233.616 227.87 234.077 228.43 234.535 229.02L234.989 229.588L235.091 229.72C235.962 230.867 237.933 229.735 237.051 228.57Z" fill="#1A2851"/>
<path d="M218.803 171.151C207.036 193.406 182.553 203.546 164.116 193.803C163.359 193.425 162.659 192.993 161.959 192.555C180.097 200.417 203.132 190.22 214.433 168.839C225.735 147.458 221.198 122.722 204.513 112.146C205.269 112.469 206.006 112.822 206.722 113.206C225.16 122.952 230.566 148.892 218.803 171.151Z" fill="#1A2851"/>
<path d="M204.513 112.147C203.813 111.708 203.098 111.288 202.356 110.898C183.919 101.152 159.435 111.295 147.668 133.55C135.902 155.805 141.312 181.749 159.749 191.495C160.476 191.881 161.212 192.234 161.959 192.555C180.097 200.417 203.132 190.22 214.433 168.839C225.735 147.458 221.198 122.722 204.513 112.147ZM208.561 165.737C198.864 184.076 178.671 192.433 163.495 184.401C148.319 176.368 143.843 154.991 153.537 136.649C163.23 118.306 183.427 109.952 198.603 117.985C213.779 126.017 218.255 147.394 208.561 165.737Z" fill="#DDEAFC"/>
<path d="M198.603 117.984C183.412 109.952 163.234 118.31 153.537 136.649C143.839 154.988 148.3 176.376 163.495 184.401C178.69 192.426 198.864 184.076 208.561 165.737C218.258 147.398 213.786 126.017 198.603 117.984ZM203.366 163.009C195.5 177.889 179.151 184.67 166.806 178.143C154.46 171.616 150.866 154.284 158.732 139.396C166.598 124.507 182.946 117.735 195.292 124.261C207.638 130.788 211.232 148.113 203.366 162.986V163.009Z" fill="#306AE0"/>
<path d="M195.292 124.25C182.965 117.735 166.598 124.515 158.732 139.384C150.866 154.254 154.483 171.609 166.806 178.124C179.129 184.639 195.5 177.859 203.366 162.99C211.232 148.12 207.615 130.765 195.292 124.25ZM197.649 159.967C191.8 171.034 179.624 176.077 170.457 171.23C161.289 166.384 158.599 153.486 164.449 142.419C170.298 131.352 182.473 126.308 191.641 131.155C200.809 136.002 203.499 148.9 197.649 159.959V159.967Z" fill="#D1D1D1"/>
<path d="M191.641 131.155C182.473 126.308 170.298 131.352 164.449 142.419C158.599 153.486 161.289 166.384 170.457 171.23C179.624 176.077 191.8 171.034 197.649 159.967C203.499 148.9 200.809 136.002 191.641 131.155ZM190.366 156.126C187.082 162.339 180.249 165.169 175.103 162.449C169.957 159.728 168.448 152.487 171.732 146.274C175.016 140.062 181.849 137.231 186.995 139.952C192.14 142.672 193.65 149.906 190.366 156.119V156.126Z" fill="#306AE0"/>
<path d="M186.995 139.944C181.849 137.224 175.016 140.054 171.732 146.267C168.448 152.479 169.957 159.721 175.103 162.441C180.249 165.162 187.082 162.331 190.366 156.119C193.65 149.906 192.141 142.665 186.995 139.944ZM185.481 153.527C183.926 156.467 180.688 157.81 178.251 156.52C175.814 155.23 175.099 151.802 176.654 148.858C178.209 145.915 181.448 144.575 183.885 145.865C186.321 147.156 187.018 150.584 185.463 153.527H185.481Z" fill="#D1D1D1"/>
<path d="M185.462 153.527C183.907 156.467 180.669 157.81 178.232 156.52C175.795 155.23 175.08 151.802 176.635 148.858C178.19 145.915 181.429 144.575 183.866 145.865C186.302 147.156 187.017 150.584 185.462 153.527Z" fill="#306AE0"/>
<path d="M181.036 149.539C181.036 149.539 92.3678 106.047 89.6209 106.812C88.0583 107.247 87.9334 108.809 88.1075 110.077L180.453 151.756C181.191 150.898 181.036 149.539 181.036 149.539Z" fill="#1A2851"/>
<path d="M88.1113 110.077C88.2009 110.673 88.3518 111.259 88.5616 111.825L178.913 152.445C179.204 152.447 179.492 152.386 179.758 152.267C180.023 152.148 180.26 151.974 180.453 151.756L88.1113 110.077Z" fill="#1A2851"/>
<path d="M110.098 119.986L96.9535 125.514L77.8389 117.939L92.3868 111.318L110.098 119.986Z" fill="#306AE0"/>
<path d="M111.221 116.002L107.059 104.163L88.3459 96.1118L94.2331 109.46L111.221 116.002Z" fill="#306AE0"/>
</svg>
