<svg width="21" height="20" viewBox="0 0 21 20" fill="none" xmlns="http://www.w3.org/2000/svg">
<path d="M18 3.4375H3C2.75136 3.4375 2.5129 3.53627 2.33709 3.71209C2.16127 3.8879 2.0625 4.12636 2.0625 4.375V15C2.0625 15.4144 2.22712 15.8118 2.52015 16.1049C2.81317 16.3979 3.2106 16.5625 3.625 16.5625H17.375C17.7894 16.5625 18.1868 16.3979 18.4799 16.1049C18.7729 15.8118 18.9375 15.4144 18.9375 15V4.375C18.9375 4.12636 18.8387 3.8879 18.6629 3.71209C18.4871 3.53627 18.2486 3.4375 18 3.4375ZM15.5898 5.3125L10.5 9.97813L5.41016 5.3125H15.5898ZM3.9375 14.6875V6.50625L9.86641 11.9414C10.0393 12.1 10.2654 12.1879 10.5 12.1879C10.7346 12.1879 10.9607 12.1 11.1336 11.9414L17.0625 6.50625V14.6875H3.9375Z" fill="#68A8F2"/>
</svg>
