<svg width="25" height="24" viewBox="0 0 25 24" fill="none" xmlns="http://www.w3.org/2000/svg">
<path d="M22.4769 15.1875C22.5507 15.3158 22.5986 15.4574 22.6178 15.6042C22.6369 15.7509 22.627 15.9001 22.5885 16.043C22.55 16.186 22.4838 16.3199 22.3935 16.4373C22.3033 16.5546 22.1908 16.653 22.0625 16.7269C21.9342 16.8008 21.7926 16.8486 21.6458 16.8678C21.4991 16.8869 21.3499 16.877 21.207 16.8385C21.064 16.8 20.9301 16.7338 20.8127 16.6435C20.6954 16.5533 20.597 16.4408 20.5231 16.3125L18.9425 13.5469C18.0605 14.1017 17.1096 14.5386 16.1141 14.8463L16.61 17.8125C16.6588 18.1068 16.5887 18.4083 16.4152 18.651C16.2417 18.8936 15.9789 19.0573 15.6847 19.1063C15.6228 19.1172 15.56 19.1225 15.4972 19.1222C15.2315 19.1219 14.9745 19.0276 14.7717 18.8561C14.5689 18.6845 14.4333 18.4466 14.3891 18.1847L13.9062 15.2972C12.9697 15.4009 12.0246 15.4009 11.0881 15.2972L10.61 18.1875C10.5657 18.4498 10.4298 18.6879 10.2266 18.8595C10.0234 19.0311 9.76598 19.1252 9.49999 19.125C9.43714 19.1253 9.37439 19.12 9.31249 19.1091C9.16678 19.0845 9.02732 19.0315 8.9021 18.9531C8.77687 18.8746 8.66832 18.7723 8.58265 18.6519C8.49699 18.5315 8.43588 18.3954 8.40282 18.2514C8.36977 18.1073 8.36541 17.9582 8.38999 17.8125L8.88593 14.8388C7.89039 14.5311 6.93948 14.0942 6.05749 13.5394L4.47687 16.3125C4.32768 16.5716 4.08169 16.7608 3.793 16.8385C3.50431 16.9162 3.19658 16.8761 2.93749 16.7269C2.67841 16.5777 2.4892 16.3317 2.41149 16.043C2.33378 15.7543 2.37393 15.4466 2.52312 15.1875L4.24999 12.1734C3.6647 11.6449 3.12207 11.0709 2.62718 10.4569C2.45247 10.2239 2.37494 9.93217 2.41088 9.64316C2.44683 9.35414 2.59346 9.09033 2.81993 8.90721C3.0464 8.72409 3.33506 8.63594 3.6252 8.66129C3.91534 8.68664 4.18434 8.82352 4.37562 9.04313C5.87937 10.905 8.50999 13.125 12.5 13.125C16.49 13.125 19.1206 10.905 20.6244 9.04313C20.8126 8.81324 21.084 8.66713 21.3796 8.63667C21.6751 8.60621 21.9707 8.69389 22.2018 8.88057C22.4329 9.06724 22.5808 9.33776 22.6132 9.63308C22.6456 9.9284 22.5598 10.2245 22.3747 10.4569C21.8792 11.071 21.3359 11.645 20.75 12.1734L22.4769 15.1875Z" fill="#D1D1D1"/>
</svg>
