<svg width="29" height="28" viewBox="0 0 29 28" fill="none" xmlns="http://www.w3.org/2000/svg">
<path d="M26.3125 14.9844C26.1194 17.2289 25.2893 19.3715 23.9199 21.1602C22.5505 22.9489 20.6986 24.3093 18.5823 25.0813C16.466 25.8533 14.1732 26.0048 11.9737 25.518C9.7742 25.0313 7.75947 23.9264 6.16654 22.3335C4.57362 20.7406 3.46877 18.7258 2.98199 16.5263C2.49521 14.3268 2.64674 12.034 3.41875 9.9177C4.19077 7.80138 5.55115 5.94957 7.33986 4.58014C9.12856 3.21071 11.2712 2.38062 13.5156 2.18754C13.8637 2.15853 14.2091 2.26899 14.4757 2.49462C14.7424 2.72025 14.9085 3.04256 14.9375 3.39066C14.9665 3.73876 14.856 4.08412 14.6304 4.35077C14.4048 4.61743 14.0825 4.78353 13.7344 4.81254C11.988 4.9623 10.3208 5.60776 8.92894 6.67296C7.53703 7.73816 6.47834 9.17878 5.87746 10.8253C5.27658 12.4718 5.1585 14.2557 5.53713 15.967C5.91575 17.6784 6.77533 19.246 8.01469 20.4853C9.25406 21.7247 10.8216 22.5843 12.533 22.9629C14.2443 23.3415 16.0282 23.2235 17.6747 22.6226C19.3212 22.0217 20.7619 20.963 21.8271 19.5711C22.8923 18.1792 23.5377 16.512 23.6875 14.7657C23.7019 14.5933 23.75 14.4255 23.8293 14.2717C23.9085 14.118 24.0172 13.9813 24.1493 13.8696C24.2813 13.7579 24.434 13.6733 24.5988 13.6206C24.7635 13.5679 24.937 13.5482 25.1094 13.5625C25.2817 13.5769 25.4496 13.6251 25.6033 13.7043C25.7571 13.7835 25.8937 13.8923 26.0054 14.0243C26.1171 14.1563 26.2018 14.3091 26.2544 14.4738C26.3071 14.6385 26.3269 14.8121 26.3125 14.9844ZM13.1875 8.31254V14C13.1875 14.3481 13.3258 14.682 13.5719 14.9281C13.8181 15.1743 14.1519 15.3125 14.5 15.3125H20.1875C20.5356 15.3125 20.8694 15.1743 21.1156 14.9281C21.3617 14.682 21.5 14.3481 21.5 14C21.5 13.6519 21.3617 13.3181 21.1156 13.072C20.8694 12.8258 20.5356 12.6875 20.1875 12.6875H15.8125V8.31254C15.8125 7.96444 15.6742 7.6306 15.4281 7.38446C15.1819 7.13832 14.8481 7.00004 14.5 7.00004C14.1519 7.00004 13.8181 7.13832 13.5719 7.38446C13.3258 7.6306 13.1875 7.96444 13.1875 8.31254ZM23.25 10.5C23.5961 10.5 23.9345 10.3974 24.2222 10.2051C24.51 10.0128 24.7343 9.7395 24.8668 9.41973C24.9992 9.09996 25.0339 8.7481 24.9664 8.40863C24.8988 8.06916 24.7322 7.75734 24.4874 7.5126C24.2427 7.26786 23.9309 7.10119 23.5914 7.03366C23.2519 6.96614 22.9001 7.00079 22.5803 7.13325C22.2605 7.2657 21.9872 7.49 21.7949 7.77779C21.6026 8.06557 21.5 8.40392 21.5 8.75004C21.5 9.21417 21.6844 9.65928 22.0126 9.98747C22.3407 10.3157 22.7859 10.5 23.25 10.5ZM19.75 7.00004C20.0961 7.00004 20.4345 6.8974 20.7222 6.70511C21.01 6.51282 21.2343 6.2395 21.3668 5.91973C21.4992 5.59996 21.5339 5.24809 21.4664 4.90863C21.3988 4.56916 21.2322 4.25734 20.9874 4.0126C20.7427 3.76786 20.4309 3.60119 20.0914 3.53366C19.7519 3.46614 19.4001 3.50079 19.0803 3.63325C18.7605 3.7657 18.4872 3.99 18.2949 4.27779C18.1026 4.56557 18 4.90392 18 5.25004C18 5.71416 18.1844 6.15928 18.5126 6.48747C18.8407 6.81566 19.2859 7.00004 19.75 7.00004Z" fill="#B0B0B0"/>
</svg>
