<svg width="84" height="19" viewBox="0 0 84 19" fill="none" xmlns="http://www.w3.org/2000/svg">
<path d="M21.2856 11.3932H18.9658C18.7772 11.3932 18.6242 11.2402 18.6242 11.0516V8.72165C18.6242 8.12684 18.3829 7.58812 17.9937 7.19724C17.6029 6.80807 17.0607 6.56165 16.4676 6.56165C15.8711 6.56165 15.3324 6.80637 14.9415 7.19724C14.5507 7.58642 14.3059 8.12514 14.3059 8.72165V15.8763C14.3059 16.0463 14.2363 16.2043 14.1224 16.3233C14.0034 16.4371 13.8454 16.5068 13.6754 16.5068C13.5004 16.5068 13.3423 16.4371 13.2285 16.3233C13.1146 16.2043 13.0398 16.048 13.0398 15.8763V7.20404C13.0398 6.60924 12.7985 6.07051 12.4094 5.67964C12.0151 5.29047 11.4764 5.04405 10.8832 5.04405C10.2867 5.04405 9.74802 5.28877 9.35715 5.67964C8.96288 6.06881 8.72155 6.60754 8.72155 7.20404V14.5898C8.72155 14.7598 8.65188 14.9178 8.53292 15.0368C8.41905 15.1507 8.26101 15.2203 8.08936 15.2203C7.91432 15.2203 7.75627 15.1507 7.64241 15.0368C7.52345 14.9178 7.45377 14.7615 7.45377 14.5898V10.7236C7.45377 10.1322 7.21245 9.59346 6.81818 9.19919C6.4273 8.81002 5.88858 8.5687 5.29207 8.5687C4.70067 8.5687 4.16024 8.81002 3.76597 9.19919C3.3751 9.59346 3.13548 10.1322 3.13548 10.7236V11.0533C3.13548 11.2419 2.98253 11.3949 2.79389 11.3949H0.763051C0.341588 11.3949 0 11.7365 0 12.1579C0 12.5794 0.341588 12.921 0.763051 12.921H3.13718C3.9801 12.921 4.66328 12.2378 4.66328 11.3949V10.7236C4.66328 10.5536 4.73296 10.3956 4.85192 10.2817C4.96578 10.1628 5.12383 10.0931 5.29547 10.0931C5.47052 10.0931 5.62856 10.1628 5.74243 10.2817C5.86139 10.3956 5.93106 10.5536 5.93106 10.7236V14.5898C5.93106 15.1812 6.17239 15.7234 6.56156 16.1142C6.95583 16.5034 7.49456 16.7447 8.09106 16.7447C8.68247 16.7447 9.22289 16.5034 9.61716 16.1142C10.008 15.7251 10.2477 15.1812 10.2477 14.5898V7.20234C10.2477 7.0273 10.3173 6.86925 10.4363 6.75539C10.5502 6.64153 10.7082 6.56675 10.8832 6.56675C11.0549 6.56675 11.2112 6.64153 11.3268 6.75539C11.4458 6.86925 11.5154 7.0273 11.5154 7.20234V15.8746C11.5154 16.466 11.7568 17.0081 12.151 17.399C12.5419 17.7882 13.0806 18.0295 13.6771 18.0295C14.2685 18.0295 14.8124 17.7882 15.2032 17.399C15.5941 17.0098 15.8337 16.466 15.8337 15.8746V8.71995C15.8337 8.54491 15.9085 8.38686 16.0224 8.27299C16.1362 8.15913 16.2943 8.08435 16.4693 8.08435C16.641 8.08435 16.7973 8.15913 16.9163 8.27299C17.0301 8.38686 17.0998 8.54491 17.0998 8.71995V11.3932C17.0998 12.2361 17.783 12.9193 18.6259 12.9193H21.2873C21.7087 12.9193 22.0503 12.5777 22.0503 12.1562C22.0486 11.7348 21.707 11.3932 21.2856 11.3932Z" fill="#306AE0"/>
<path d="M16.4659 2.48807C15.6264 2.48807 14.9449 3.16955 14.9449 4.00738C14.9449 4.8452 15.6264 5.52328 16.4659 5.52328C17.3054 5.52328 17.9835 4.8452 17.9835 4.00738C17.9835 3.16955 17.3054 2.48807 16.4659 2.48807Z" fill="#306AE0"/>
<path d="M10.7847 0.970459C9.94516 0.970459 9.26368 1.65194 9.26368 2.48976C9.26368 3.32759 9.94516 4.00567 10.7847 4.00567C11.6242 4.00567 12.3023 3.32759 12.3023 2.48976C12.3023 1.65194 11.6242 0.970459 10.7847 0.970459Z" fill="#306AE0"/>
<path d="M5.29546 4.49171C4.45594 4.49171 3.77446 5.17318 3.77446 6.01101C3.77446 6.84884 4.45594 7.52692 5.29546 7.52692C6.13499 7.52692 6.81307 6.84884 6.81307 6.01101C6.81307 5.17148 6.13499 4.49171 5.29546 4.49171Z" fill="#306AE0"/>
<path d="M25.7149 9.76229C25.7149 8.57686 26.0312 7.66323 26.6638 7.02138C27.2139 6.46245 27.9138 6.18298 28.7634 6.18298C29.9003 6.18298 30.7316 6.55765 31.2572 7.30699C31.5476 7.72772 31.7034 8.14999 31.7248 8.57379H30.3129C30.2212 8.24826 30.1035 8.00258 29.9599 7.83674C29.7032 7.54192 29.3227 7.39451 28.8184 7.39451C28.305 7.39451 27.9 7.60334 27.6036 8.021C27.3072 8.4356 27.1589 9.0237 27.1589 9.78532C27.1589 10.5469 27.3148 11.1182 27.6265 11.499C27.9413 11.8767 28.3401 12.0656 28.823 12.0656C29.3181 12.0656 29.6955 11.9028 29.9553 11.5773C30.0989 11.4022 30.2181 11.1397 30.3129 10.7896H31.7111C31.5888 11.5297 31.2756 12.1316 30.7713 12.5953C30.2701 13.0591 29.6268 13.2909 28.8413 13.2909C27.8695 13.2909 27.1054 12.9777 26.5492 12.3512C25.993 11.7216 25.7149 10.8587 25.7149 9.76229Z" fill="#306AE0"/>
<path d="M34.9292 12.1761C35.3112 12.1761 35.6046 12.0395 35.8093 11.7661C36.0141 11.4928 36.1165 11.1043 36.1165 10.6007C36.1165 10.097 36.0141 9.71008 35.8093 9.43983C35.6046 9.16651 35.3112 9.02984 34.9292 9.02984C34.5472 9.02984 34.2522 9.16651 34.0444 9.43983C33.8397 9.71008 33.7373 10.097 33.7373 10.6007C33.7373 11.1043 33.8397 11.4928 34.0444 11.7661C34.2522 12.0395 34.5472 12.1761 34.9292 12.1761ZM37.4872 10.6007C37.4872 11.3377 37.2763 11.9688 36.8545 12.494C36.4328 13.0161 35.7925 13.2771 34.9338 13.2771C34.075 13.2771 33.4347 13.0161 33.013 12.494C32.5912 11.9688 32.3804 11.3377 32.3804 10.6007C32.3804 9.87592 32.5912 9.24789 33.013 8.7166C33.4347 8.18531 34.075 7.91966 34.9338 7.91966C35.7925 7.91966 36.4328 8.18531 36.8545 8.7166C37.2763 9.24789 37.4872 9.87592 37.4872 10.6007Z" fill="#306AE0"/>
<path d="M41.1958 7.96112C41.7123 7.96112 42.134 8.09778 42.461 8.3711C42.7911 8.64136 42.9561 9.09126 42.9561 9.72083V13.1021H41.6175V10.0479C41.6175 9.78379 41.5824 9.5811 41.5121 9.43983C41.3837 9.18186 41.1393 9.05288 40.7786 9.05288C40.3355 9.05288 40.0314 9.24175 39.8664 9.61948C39.7808 9.8191 39.738 10.074 39.738 10.3842V13.1021H38.4361V8.0901H39.6968V8.82255C39.8648 8.56458 40.0238 8.37878 40.1735 8.26515C40.4425 8.06246 40.7832 7.96112 41.1958 7.96112Z" fill="#306AE0"/>
<path d="M46.9352 7.96112C47.4517 7.96112 47.8735 8.09778 48.2005 8.3711C48.5305 8.64136 48.6956 9.09126 48.6956 9.72083V13.1021H47.357V10.0479C47.357 9.78379 47.3218 9.5811 47.2515 9.43983C47.1232 9.18186 46.8787 9.05288 46.5181 9.05288C46.0749 9.05288 45.7708 9.24175 45.6058 9.61948C45.5202 9.8191 45.4774 10.074 45.4774 10.3842V13.1021H44.1755V8.0901H45.4362V8.82255C45.6043 8.56458 45.7632 8.37878 45.9129 8.26515C46.1819 8.06246 46.5226 7.96112 46.9352 7.96112Z" fill="#306AE0"/>
<path d="M51.877 9.02984C51.5744 9.02984 51.3391 9.12505 51.171 9.31545C51.006 9.50586 50.9021 9.76382 50.8593 10.0894H52.8901C52.8687 9.74233 52.7633 9.47975 52.5738 9.30163C52.3874 9.12044 52.1551 9.02984 51.877 9.02984ZM51.877 7.9473C52.2926 7.9473 52.667 8.02561 53.0001 8.18223C53.3333 8.33886 53.6083 8.58608 53.8253 8.92389C54.0209 9.22178 54.1477 9.56728 54.2058 9.96037C54.2394 10.1907 54.2532 10.5224 54.247 10.9554H50.8272C50.8456 11.459 51.003 11.8122 51.2994 12.0149C51.4797 12.1408 51.6967 12.2038 51.9504 12.2038C52.2193 12.2038 52.4378 12.127 52.6059 11.9734C52.6976 11.8905 52.7786 11.7754 52.8489 11.6279H54.1829C54.1493 11.9258 53.9949 12.2283 53.7199 12.5354C53.292 13.0237 52.693 13.2679 51.9229 13.2679C51.2872 13.2679 50.7264 13.0621 50.2404 12.6506C49.7545 12.2391 49.5116 11.5696 49.5116 10.6421C49.5116 9.77304 49.7301 9.10662 50.1671 8.64289C50.6072 8.17916 51.1772 7.9473 51.877 7.9473Z" fill="#306AE0"/>
<path d="M58.1161 9.88206C58.0917 9.69473 58.029 9.52582 57.9282 9.37534C57.7815 9.17265 57.5538 9.0713 57.2451 9.0713C56.805 9.0713 56.504 9.29088 56.342 9.73004C56.2565 9.96344 56.2137 10.2736 56.2137 10.6606C56.2137 11.0291 56.2565 11.3255 56.342 11.5496C56.4979 11.9673 56.7913 12.1761 57.2222 12.1761C57.5278 12.1761 57.7448 12.0932 57.8732 11.9274C58.0015 11.7615 58.0794 11.5466 58.107 11.2825H59.441C59.4104 11.6817 59.2668 12.0594 59.01 12.4157C58.6005 12.99 57.9939 13.2771 57.1901 13.2771C56.3863 13.2771 55.795 13.0376 55.416 12.5585C55.0371 12.0794 54.8476 11.4575 54.8476 10.6928C54.8476 9.82985 55.0569 9.15883 55.4756 8.67974C55.8943 8.20066 56.4719 7.96112 57.2084 7.96112C57.835 7.96112 58.3469 8.10239 58.7442 8.38492C59.1445 8.66746 59.3814 9.16651 59.4547 9.88206H58.1161Z" fill="#306AE0"/>
<path d="M59.8444 9.06209V8.12696H60.5412V6.72656H61.8339V8.12696H62.6453V9.06209H61.8339V11.7155C61.8339 11.9212 61.8599 12.0502 61.9118 12.1024C61.9638 12.1516 62.1227 12.1761 62.3886 12.1761C62.4283 12.1761 62.4696 12.1761 62.5124 12.1761C62.5582 12.1731 62.6025 12.17 62.6453 12.1669V13.1481L62.0265 13.1712C61.4091 13.1926 60.9874 13.0852 60.7612 12.8487C60.6145 12.6982 60.5412 12.4663 60.5412 12.1531V9.06209H59.8444Z" fill="#306AE0"/>
<path d="M68.0684 6.31197H70.0993V13.1021H68.7836V8.5093C68.7836 8.37725 68.7851 8.19298 68.7882 7.95651C68.7912 7.71697 68.7928 7.53271 68.7928 7.40372L67.5138 13.1021H66.1431L64.8733 7.40372C64.8733 7.53271 64.8748 7.71697 64.8778 7.95651C64.8809 8.19298 64.8824 8.37725 64.8824 8.5093V13.1021H63.5668V6.31197H65.6205L66.849 11.651L68.0684 6.31197Z" fill="#306AE0"/>
<path d="M74.06 10.6606C73.9775 10.7128 73.8935 10.7558 73.8079 10.7896C73.7254 10.8203 73.6108 10.8494 73.4641 10.8771L73.1707 10.9324C72.8956 10.9815 72.6985 11.0414 72.5793 11.112C72.3776 11.2318 72.2768 11.4176 72.2768 11.6694C72.2768 11.8936 72.3379 12.0564 72.4601 12.1577C72.5854 12.256 72.7367 12.3051 72.914 12.3051C73.1951 12.3051 73.4534 12.2222 73.6887 12.0564C73.9271 11.8905 74.0508 11.588 74.06 11.1489V10.6606ZM73.2669 10.0479C73.5084 10.0172 73.6811 9.9788 73.785 9.93273C73.9714 9.85288 74.0646 9.72851 74.0646 9.5596C74.0646 9.35384 73.9928 9.21257 73.8491 9.13579C73.7086 9.05595 73.5007 9.01602 73.2257 9.01602C72.917 9.01602 72.6985 9.0928 72.5701 9.24635C72.4785 9.35998 72.4173 9.51353 72.3868 9.70701H71.1261C71.1536 9.26785 71.2759 8.907 71.4929 8.62447C71.8382 8.18223 72.4311 7.96112 73.2715 7.96112C73.8186 7.96112 74.3045 8.07014 74.7293 8.28819C75.1541 8.50623 75.3665 8.91775 75.3665 9.52275V11.826C75.3665 11.9857 75.3696 12.1792 75.3757 12.4065C75.3849 12.5784 75.4108 12.6951 75.4536 12.7566C75.4964 12.818 75.5606 12.8687 75.6462 12.9086V13.1021H74.225C74.1853 13.0007 74.1578 12.9055 74.1425 12.8164C74.1273 12.7274 74.115 12.626 74.1059 12.5124C73.9255 12.709 73.7177 12.8763 73.4824 13.0145C73.2012 13.1773 72.8834 13.2587 72.5289 13.2587C72.0766 13.2587 71.7022 13.1297 71.4058 12.8717C71.1124 12.6107 70.9657 12.2422 70.9657 11.7661C70.9657 11.1489 71.2025 10.702 71.6762 10.4256C71.936 10.2752 72.318 10.1677 72.8223 10.1032L73.2669 10.0479Z" fill="#306AE0"/>
<path d="M76.0175 9.06209V8.12696H76.7143V6.72656H78.007V8.12696H78.8184V9.06209H78.007V11.7155C78.007 11.9212 78.033 12.0502 78.085 12.1024C78.1369 12.1516 78.2958 12.1761 78.5617 12.1761C78.6014 12.1761 78.6427 12.1761 78.6855 12.1761C78.7313 12.1731 78.7756 12.17 78.8184 12.1669V13.1481L78.1996 13.1712C77.5822 13.1926 77.1605 13.0852 76.9343 12.8487C76.7876 12.6982 76.7143 12.4663 76.7143 12.1531V9.06209H76.0175Z" fill="#306AE0"/>
<path d="M81.6286 9.02984C81.326 9.02984 81.0907 9.12505 80.9226 9.31545C80.7575 9.50586 80.6536 9.76382 80.6109 10.0894H82.6417C82.6203 9.74233 82.5148 9.47975 82.3254 9.30163C82.1389 9.12044 81.9067 9.02984 81.6286 9.02984ZM81.6286 7.9473C82.0442 7.9473 82.4186 8.02561 82.7517 8.18223C83.0848 8.33886 83.3599 8.58608 83.5768 8.92389C83.7724 9.22178 83.8993 9.56728 83.9573 9.96037C83.9909 10.1907 84.0047 10.5224 83.9986 10.9554H80.5788C80.5971 11.459 80.7545 11.8122 81.0509 12.0149C81.2313 12.1408 81.4482 12.2038 81.7019 12.2038C81.9708 12.2038 82.1894 12.127 82.3574 11.9734C82.4491 11.8905 82.5301 11.7754 82.6004 11.6279H83.9344C83.9008 11.9258 83.7465 12.2283 83.4714 12.5354C83.0435 13.0237 82.4445 13.2679 81.6744 13.2679C81.0387 13.2679 80.4779 13.0621 79.992 12.6506C79.5061 12.2391 79.2631 11.5696 79.2631 10.6421C79.2631 9.77304 79.4816 9.10662 79.9186 8.64289C80.3587 8.17916 80.9287 7.9473 81.6286 7.9473Z" fill="#306AE0"/>
</svg>
