<svg width="48" height="36" viewBox="0 0 48 36" fill="none" xmlns="http://www.w3.org/2000/svg">
<rect width="48" height="36" fill="#1E1E1E"/>
<g clip-path="url(#clip0_0_1)">
<rect width="390" height="852" transform="translate(-171 -68)" fill="white"/>
<g opacity="0.7">
<g filter="url(#filter0_f_0_1)">
<path d="M-400.73 135.177C-400.73 135.177 -299.114 -155.936 21.5 -68.5546C342.114 18.8269 443.73 -272.286 443.73 -272.286" stroke="url(#paint0_radial_0_1)" stroke-width="115.808"/>
</g>
<g filter="url(#filter1_f_0_1)">
<path d="M-400.73 135.177C-400.73 135.177 -299.114 -155.936 21.5 -68.5546C342.114 18.8269 443.73 -272.286 443.73 -272.286" stroke="url(#paint1_radial_0_1)" stroke-width="115.808"/>
</g>
</g>
<path d="M45.6527 21.9952H40.7573C40.3592 21.9952 40.0364 21.6725 40.0364 21.2744V19.7789V16.3575C40.0364 15.1022 39.5272 13.9654 38.7059 13.1405C37.881 12.3192 36.737 11.7992 35.4853 11.7992C34.2265 11.7992 33.0896 12.3156 32.2648 13.1405C31.4399 13.9618 30.9235 15.0986 30.9235 16.3575V20.8117V31.4094V31.4561C30.9235 31.8147 30.7764 32.1482 30.5362 32.3993C30.2851 32.6396 29.9516 32.7866 29.5929 32.7866C29.2235 32.7866 28.89 32.6396 28.6497 32.3993C28.4094 32.1482 28.2516 31.8183 28.2516 31.4561V30.3766V14.2343V13.1548C28.2516 11.8996 27.7424 10.7627 26.9211 9.93786C26.0891 9.11658 24.9522 8.59656 23.7005 8.59656C22.4417 8.59656 21.3048 9.113 20.48 9.93786C19.6479 10.7591 19.1387 11.896 19.1387 13.1548V16.4543V21.3784V28.7412C19.1387 29.0998 18.9916 29.4334 18.7406 29.6844C18.5003 29.9247 18.1668 30.0717 17.8045 30.0717C17.4352 30.0717 17.1016 29.9247 16.8613 29.6844C16.6103 29.4334 16.4632 29.1034 16.4632 28.7412V26.9839V20.5822C16.4632 19.3341 15.954 18.1973 15.1219 17.3652C14.2971 16.5439 13.1602 16.0347 11.9014 16.0347C10.6533 16.0347 9.51286 16.5439 8.68082 17.3652C7.85596 18.1973 7.35028 19.3341 7.35028 20.5822V21.278C7.35028 21.676 7.02751 21.9988 6.62942 21.9988H2.34371C1.45429 21.9988 0.733429 22.7197 0.733429 23.6091C0.733429 24.4985 1.45429 25.2194 2.34371 25.2194H7.35387C9.13271 25.2194 10.5744 23.7777 10.5744 21.9988V20.5822C10.5744 20.2236 10.7215 19.89 10.9725 19.6497C11.2128 19.3987 11.5463 19.2517 11.9086 19.2517C12.278 19.2517 12.6115 19.3987 12.8518 19.6497C13.1028 19.89 13.2499 20.2236 13.2499 20.5822V26.9839V28.7412C13.2499 29.9892 13.7591 31.1333 14.5804 31.9582C15.4124 32.7794 16.5493 33.2887 17.8081 33.2887C19.0562 33.2887 20.1966 32.7794 21.0287 31.9582C21.8536 31.1369 22.3592 29.9892 22.3592 28.7412V21.3748V16.4507V13.1512C22.3592 12.7818 22.5063 12.4483 22.7573 12.208C22.9976 11.9677 23.3311 11.8099 23.7005 11.8099C24.0628 11.8099 24.3927 11.9677 24.6366 12.208C24.8876 12.4483 25.0347 12.7818 25.0347 13.1512V14.2307V30.373V31.4525C25.0347 32.7005 25.5439 33.8446 26.376 34.6695C27.2008 35.4907 28.3377 36 29.5965 36C30.8446 36 31.9922 35.4907 32.8171 34.6695C33.6419 33.8482 34.1476 32.7005 34.1476 31.4525V31.4059V20.8081V16.3539C34.1476 15.9845 34.3054 15.6509 34.5457 15.4107C34.786 15.1704 35.1195 15.0126 35.4889 15.0126C35.8512 15.0126 36.1811 15.1704 36.4321 15.4107C36.6724 15.6509 36.8195 15.9845 36.8195 16.3539V21.3497V21.9952C36.8195 23.7741 38.2612 25.2158 40.04 25.2158H45.6563C46.5457 25.2158 47.2666 24.4949 47.2666 23.6055C47.263 22.7161 46.5421 21.9952 45.6527 21.9952Z" fill="#306AE0"/>
<path d="M35.4817 3.20265C33.7101 3.20265 32.2719 4.64079 32.2719 6.40887C32.2719 8.17695 33.7101 9.60791 35.4817 9.60791C37.2534 9.60791 38.6844 8.17695 38.6844 6.40887C38.6844 4.64079 37.2534 3.20265 35.4817 3.20265Z" fill="#306AE0"/>
<path d="M23.4925 0C21.7209 0 20.2827 1.43813 20.2827 3.20621C20.2827 4.97429 21.7209 6.40525 23.4925 6.40525C25.2642 6.40525 26.6952 4.97429 26.6952 3.20621C26.6952 1.43813 25.2642 0 23.4925 0Z" fill="#306AE0"/>
<path d="M11.9085 7.43094C10.1369 7.43094 8.69875 8.86907 8.69875 10.6372C8.69875 12.4052 10.1369 13.8362 11.9085 13.8362C13.6802 13.8362 15.1112 12.4052 15.1112 10.6372C15.1112 8.86549 13.6802 7.43094 11.9085 7.43094Z" fill="#306AE0"/>
</g>
<defs>
<filter id="filter0_f_0_1" x="-507.491" y="-343.741" width="1057.98" height="550.372" filterUnits="userSpaceOnUse" color-interpolation-filters="sRGB">
<feFlood flood-opacity="0" result="BackgroundImageFix"/>
<feBlend mode="normal" in="SourceGraphic" in2="BackgroundImageFix" result="shape"/>
<feGaussianBlur stdDeviation="26.0568" result="effect1_foregroundBlur_0_1"/>
</filter>
<filter id="filter1_f_0_1" x="-461.168" y="-297.418" width="965.337" height="457.726" filterUnits="userSpaceOnUse" color-interpolation-filters="sRGB">
<feFlood flood-opacity="0" result="BackgroundImageFix"/>
<feBlend mode="normal" in="SourceGraphic" in2="BackgroundImageFix" result="shape"/>
<feGaussianBlur stdDeviation="2.8952" result="effect1_foregroundBlur_0_1"/>
</filter>
<radialGradient id="paint0_radial_0_1" cx="0" cy="0" r="1" gradientUnits="userSpaceOnUse" gradientTransform="translate(7.43326 -142.461) rotate(109.242) scale(424.146 406.775)">
<stop offset="0.0479167" stop-color="#2D68FF"/>
<stop offset="0.846416" stop-color="#47DEFF" stop-opacity="0"/>
</radialGradient>
<radialGradient id="paint1_radial_0_1" cx="0" cy="0" r="1" gradientUnits="userSpaceOnUse" gradientTransform="translate(63.2505 -302.368) rotate(109.242) scale(593.515 569.208)">
<stop offset="0.0479167" stop-color="#714DFF"/>
<stop offset="0.504878" stop-color="#9380FF" stop-opacity="0"/>
</radialGradient>
<clipPath id="clip0_0_1">
<rect width="390" height="852" fill="white" transform="translate(-171 -68)"/>
</clipPath>
</defs>
</svg>
