<svg width="154" height="119" viewBox="0 0 154 119" fill="none" xmlns="http://www.w3.org/2000/svg">
<path d="M147.732 72.3386H131.632C130.323 72.3386 129.261 71.2771 129.261 69.9678V53.7969C129.261 49.6687 127.586 45.9297 124.885 43.2168C122.172 40.5158 118.41 38.8055 114.293 38.8055C110.153 38.8055 106.414 40.504 103.701 43.2168C100.988 45.9179 99.29 49.6569 99.29 53.7969V103.454C99.29 104.633 98.8064 105.73 98.0161 106.556C97.1905 107.346 96.0936 107.83 94.9141 107.83C93.6992 107.83 92.6022 107.346 91.812 106.556C91.0217 105.73 90.5027 104.645 90.5027 103.454V43.264C90.5027 39.1358 88.8279 35.3968 86.1268 32.684C83.3904 29.9829 79.6514 28.2726 75.5349 28.2726C71.3949 28.2726 67.6559 29.9711 64.9431 32.684C62.2066 35.385 60.5317 39.124 60.5317 43.264V94.5249C60.5317 95.7044 60.0482 96.8014 59.2225 97.627C58.4322 98.4173 57.3353 98.9009 56.144 98.9009C54.9291 98.9009 53.8322 98.4173 53.0419 97.627C52.2163 96.8014 51.7327 95.7162 51.7327 94.5249V67.6914C51.7327 63.5867 50.0578 59.8477 47.3214 57.1113C44.6085 54.4103 40.8695 52.7354 36.7295 52.7354C32.6249 52.7354 28.8741 54.4103 26.1376 57.1113C23.4248 59.8477 21.7617 63.5867 21.7617 67.6914V69.9796C21.7617 71.2889 20.7002 72.3504 19.3909 72.3504H5.29594C2.37078 72.3504 0 74.7212 0 77.6463C0 80.5715 2.37078 82.9423 5.29594 82.9423H21.7735C27.6238 82.9423 32.3654 78.2007 32.3654 72.3504V67.6914C32.3654 66.5119 32.849 65.415 33.6746 64.6247C34.4649 63.7991 35.5618 63.3155 36.7531 63.3155C37.968 63.3155 39.0649 63.7991 39.8552 64.6247C40.6808 65.415 41.1644 66.5119 41.1644 67.6914V94.5249C41.1644 98.6296 42.8393 102.392 45.5403 105.105C48.2768 107.806 52.0158 109.481 56.1558 109.481C60.2605 109.481 64.0113 107.806 66.7477 105.105C69.4605 102.404 71.1236 98.6296 71.1236 94.5249V43.2522C71.1236 42.0373 71.6072 40.9404 72.4329 40.1502C73.2231 39.3599 74.32 38.8409 75.5349 38.8409C76.7262 38.8409 77.8114 39.3599 78.6134 40.1502C79.4391 40.9404 79.9227 42.0373 79.9227 43.2522V103.442C79.9227 107.547 81.5975 111.309 84.334 114.022C87.0468 116.723 90.7858 118.398 94.9258 118.398C99.0305 118.398 102.805 116.723 105.518 114.022C108.231 111.321 109.894 107.547 109.894 103.442V53.7851C109.894 52.5703 110.413 51.4733 111.203 50.6831C111.993 49.8928 113.09 49.3738 114.305 49.3738C115.496 49.3738 116.581 49.8928 117.407 50.6831C118.197 51.4733 118.681 52.5703 118.681 53.7851V72.3386C118.681 78.1889 123.422 82.9305 129.273 82.9305H147.744C150.669 82.9305 153.04 80.5597 153.04 77.6346C153.028 74.7094 150.657 72.3386 147.732 72.3386Z" fill="#306AE0"/>
<path d="M114.281 10.533C108.455 10.533 103.725 15.2627 103.725 21.0777C103.725 26.8926 108.455 31.5988 114.281 31.5988C120.108 31.5988 124.814 26.8926 124.814 21.0777C124.814 15.2627 120.108 10.533 114.281 10.533Z" fill="#306AE0"/>
<path d="M74.8508 0C69.0241 0 64.2943 4.72978 64.2943 10.5447C64.2943 16.3596 69.0241 21.0658 74.8508 21.0658C80.6776 21.0658 85.3837 16.3596 85.3837 10.5447C85.3837 4.72978 80.6776 0 74.8508 0Z" fill="#306AE0"/>
<path d="M36.753 24.4391C30.9263 24.4391 26.1966 29.1689 26.1966 34.9838C26.1966 40.7987 30.9263 45.5049 36.753 45.5049C42.5798 45.5049 47.2859 40.7987 47.2859 34.9838C47.2859 29.1571 42.5798 24.4391 36.753 24.4391Z" fill="#306AE0"/>
</svg>
