<svg width="298" height="298" viewBox="0 0 298 298" fill="none" xmlns="http://www.w3.org/2000/svg">
<path d="M10.7414 0.970459H0.5V11.2118H10.7414V0.970459Z" fill="#252525"/>
<path d="M20.9828 0.970459H10.7414V11.2118H20.9828V0.970459Z" fill="#252525"/>
<path d="M31.2241 0.970459H20.9828V11.2118H31.2241V0.970459Z" fill="#252525"/>
<path d="M41.4655 0.970459H31.2241V11.2118H41.4655V0.970459Z" fill="#252525"/>
<path d="M51.7069 0.970459H41.4655V11.2118H51.7069V0.970459Z" fill="#252525"/>
<path d="M61.9483 0.970459H51.7069V11.2118H61.9483V0.970459Z" fill="#252525"/>
<path d="M72.1897 0.970459H61.9483V11.2118H72.1897V0.970459Z" fill="#252525"/>
<path d="M92.6724 0.970459H82.431V11.2118H92.6724V0.970459Z" fill="#252525"/>
<path d="M113.155 0.970459H102.914V11.2118H113.155V0.970459Z" fill="#252525"/>
<path d="M164.362 0.970459H154.121V11.2118H164.362V0.970459Z" fill="#252525"/>
<path d="M174.603 0.970459H164.362V11.2118H174.603V0.970459Z" fill="#252525"/>
<path d="M195.086 0.970459H184.845V11.2118H195.086V0.970459Z" fill="#252525"/>
<path d="M215.569 0.970459H205.328V11.2118H215.569V0.970459Z" fill="#252525"/>
<path d="M236.052 0.970459H225.81V11.2118H236.052V0.970459Z" fill="#252525"/>
<path d="M246.293 0.970459H236.052V11.2118H246.293V0.970459Z" fill="#252525"/>
<path d="M256.534 0.970459H246.293V11.2118H256.534V0.970459Z" fill="#252525"/>
<path d="M266.776 0.970459H256.534V11.2118H266.776V0.970459Z" fill="#252525"/>
<path d="M277.017 0.970459H266.776V11.2118H277.017V0.970459Z" fill="#252525"/>
<path d="M287.259 0.970459H277.017V11.2118H287.259V0.970459Z" fill="#252525"/>
<path d="M297.5 0.970459H287.259V11.2118H297.5V0.970459Z" fill="#252525"/>
<path d="M10.7414 11.2118H0.5V21.4532H10.7414V11.2118Z" fill="#252525"/>
<path d="M72.1897 11.2118H61.9483V21.4532H72.1897V11.2118Z" fill="#252525"/>
<path d="M102.914 11.2118H92.6724V21.4532H102.914V11.2118Z" fill="#252525"/>
<path d="M113.155 11.2118H102.914V21.4532H113.155V11.2118Z" fill="#252525"/>
<path d="M123.397 11.2118H113.155V21.4532H123.397V11.2118Z" fill="#252525"/>
<path d="M133.638 11.2118H123.397V21.4532H133.638V11.2118Z" fill="#252525"/>
<path d="M154.121 11.2118H143.879V21.4532H154.121V11.2118Z" fill="#252525"/>
<path d="M164.362 11.2118H154.121V21.4532H164.362V11.2118Z" fill="#252525"/>
<path d="M236.052 11.2118H225.81V21.4532H236.052V11.2118Z" fill="#252525"/>
<path d="M297.5 11.2118H287.259V21.4532H297.5V11.2118Z" fill="#252525"/>
<path d="M10.7414 21.4532H0.5V31.6946H10.7414V21.4532Z" fill="#252525"/>
<path d="M31.2241 21.4532H20.9828V31.6946H31.2241V21.4532Z" fill="#252525"/>
<path d="M41.4655 21.4532H31.2241V31.6946H41.4655V21.4532Z" fill="#252525"/>
<path d="M51.7069 21.4532H41.4655V31.6946H51.7069V21.4532Z" fill="#252525"/>
<path d="M72.1897 21.4532H61.9483V31.6946H72.1897V21.4532Z" fill="#252525"/>
<path d="M113.155 21.4532H102.914V31.6946H113.155V21.4532Z" fill="#252525"/>
<path d="M123.397 21.4532H113.155V31.6946H123.397V21.4532Z" fill="#252525"/>
<path d="M133.638 21.4532H123.397V31.6946H133.638V21.4532Z" fill="#252525"/>
<path d="M143.879 21.4532H133.638V31.6946H143.879V21.4532Z" fill="#252525"/>
<path d="M164.362 21.4532H154.121V31.6946H164.362V21.4532Z" fill="#252525"/>
<path d="M174.603 21.4532H164.362V31.6946H174.603V21.4532Z" fill="#252525"/>
<path d="M205.328 21.4532H195.086V31.6946H205.328V21.4532Z" fill="#252525"/>
<path d="M215.569 21.4532H205.328V31.6946H215.569V21.4532Z" fill="#252525"/>
<path d="M236.052 21.4532H225.81V31.6946H236.052V21.4532Z" fill="#252525"/>
<path d="M256.534 21.4532H246.293V31.6946H256.534V21.4532Z" fill="#252525"/>
<path d="M266.776 21.4532H256.534V31.6946H266.776V21.4532Z" fill="#252525"/>
<path d="M277.017 21.4532H266.776V31.6946H277.017V21.4532Z" fill="#252525"/>
<path d="M297.5 21.4532H287.259V31.6946H297.5V21.4532Z" fill="#252525"/>
<path d="M10.7414 31.6946H0.5V41.936H10.7414V31.6946Z" fill="#252525"/>
<path d="M31.2241 31.6946H20.9828V41.936H31.2241V31.6946Z" fill="#252525"/>
<path d="M41.4655 31.6946H31.2241V41.936H41.4655V31.6946Z" fill="#252525"/>
<path d="M51.7069 31.6946H41.4655V41.936H51.7069V31.6946Z" fill="#252525"/>
<path d="M72.1897 31.6946H61.9483V41.936H72.1897V31.6946Z" fill="#252525"/>
<path d="M92.6724 31.6946H82.431V41.936H92.6724V31.6946Z" fill="#252525"/>
<path d="M102.914 31.6946H92.6724V41.936H102.914V31.6946Z" fill="#252525"/>
<path d="M113.155 31.6946H102.914V41.936H113.155V31.6946Z" fill="#252525"/>
<path d="M123.397 31.6946H113.155V41.936H123.397V31.6946Z" fill="#252525"/>
<path d="M143.879 31.6946H133.638V41.936H143.879V31.6946Z" fill="#252525"/>
<path d="M174.603 31.6946H164.362V41.936H174.603V31.6946Z" fill="#252525"/>
<path d="M205.328 31.6946H195.086V41.936H205.328V31.6946Z" fill="#252525"/>
<path d="M236.052 31.6946H225.81V41.936H236.052V31.6946Z" fill="#252525"/>
<path d="M256.534 31.6946H246.293V41.936H256.534V31.6946Z" fill="#252525"/>
<path d="M266.776 31.6946H256.534V41.936H266.776V31.6946Z" fill="#252525"/>
<path d="M277.017 31.6946H266.776V41.936H277.017V31.6946Z" fill="#252525"/>
<path d="M297.5 31.6946H287.259V41.936H297.5V31.6946Z" fill="#252525"/>
<path d="M10.7414 41.936H0.5V52.1774H10.7414V41.936Z" fill="#252525"/>
<path d="M31.2241 41.936H20.9828V52.1774H31.2241V41.936Z" fill="#252525"/>
<path d="M41.4655 41.936H31.2241V52.1774H41.4655V41.936Z" fill="#252525"/>
<path d="M51.7069 41.936H41.4655V52.1774H51.7069V41.936Z" fill="#252525"/>
<path d="M72.1897 41.936H61.9483V52.1774H72.1897V41.936Z" fill="#252525"/>
<path d="M143.879 41.936H133.638V52.1774H143.879V41.936Z" fill="#252525"/>
<path d="M154.121 41.936H143.879V52.1774H154.121V41.936Z" fill="#252525"/>
<path d="M164.362 41.936H154.121V52.1774H164.362V41.936Z" fill="#252525"/>
<path d="M184.845 41.936H174.603V52.1774H184.845V41.936Z" fill="#252525"/>
<path d="M236.052 41.936H225.81V52.1774H236.052V41.936Z" fill="#252525"/>
<path d="M256.534 41.936H246.293V52.1774H256.534V41.936Z" fill="#252525"/>
<path d="M266.776 41.936H256.534V52.1774H266.776V41.936Z" fill="#252525"/>
<path d="M277.017 41.936H266.776V52.1774H277.017V41.936Z" fill="#252525"/>
<path d="M297.5 41.936H287.259V52.1774H297.5V41.936Z" fill="#252525"/>
<path d="M10.7414 52.1774H0.5V62.4187H10.7414V52.1774Z" fill="#252525"/>
<path d="M72.1897 52.1774H61.9483V62.4187H72.1897V52.1774Z" fill="#252525"/>
<path d="M92.6724 52.1774H82.431V62.4187H92.6724V52.1774Z" fill="#252525"/>
<path d="M102.914 52.1774H92.6724V62.4187H102.914V52.1774Z" fill="#252525"/>
<path d="M113.155 52.1774H102.914V62.4187H113.155V52.1774Z" fill="#252525"/>
<path d="M123.397 52.1774H113.155V62.4187H123.397V52.1774Z" fill="#252525"/>
<path d="M133.638 52.1774H123.397V62.4187H133.638V52.1774Z" fill="#252525"/>
<path d="M143.879 52.1774H133.638V62.4187H143.879V52.1774Z" fill="#252525"/>
<path d="M164.362 52.1774H154.121V62.4187H164.362V52.1774Z" fill="#252525"/>
<path d="M174.603 52.1774H164.362V62.4187H174.603V52.1774Z" fill="#252525"/>
<path d="M236.052 52.1774H225.81V62.4187H236.052V52.1774Z" fill="#252525"/>
<path d="M297.5 52.1774H287.259V62.4187H297.5V52.1774Z" fill="#252525"/>
<path d="M10.7414 62.4187H0.5V72.6601H10.7414V62.4187Z" fill="#252525"/>
<path d="M20.9828 62.4187H10.7414V72.6601H20.9828V62.4187Z" fill="#252525"/>
<path d="M31.2241 62.4187H20.9828V72.6601H31.2241V62.4187Z" fill="#252525"/>
<path d="M41.4655 62.4187H31.2241V72.6601H41.4655V62.4187Z" fill="#252525"/>
<path d="M51.7069 62.4187H41.4655V72.6601H51.7069V62.4187Z" fill="#252525"/>
<path d="M61.9483 62.4187H51.7069V72.6601H61.9483V62.4187Z" fill="#252525"/>
<path d="M72.1897 62.4187H61.9483V72.6601H72.1897V62.4187Z" fill="#252525"/>
<path d="M92.6724 62.4187H82.431V72.6601H92.6724V62.4187Z" fill="#252525"/>
<path d="M113.155 62.4187H102.914V72.6601H113.155V62.4187Z" fill="#252525"/>
<path d="M133.638 62.4187H123.397V72.6601H133.638V62.4187Z" fill="#252525"/>
<path d="M154.121 62.4187H143.879V72.6601H154.121V62.4187Z" fill="#252525"/>
<path d="M174.603 62.4187H164.362V72.6601H174.603V62.4187Z" fill="#252525"/>
<path d="M195.086 62.4187H184.845V72.6601H195.086V62.4187Z" fill="#252525"/>
<path d="M215.569 62.4187H205.328V72.6601H215.569V62.4187Z" fill="#252525"/>
<path d="M236.052 62.4187H225.81V72.6601H236.052V62.4187Z" fill="#252525"/>
<path d="M246.293 62.4187H236.052V72.6601H246.293V62.4187Z" fill="#252525"/>
<path d="M256.534 62.4187H246.293V72.6601H256.534V62.4187Z" fill="#252525"/>
<path d="M266.776 62.4187H256.534V72.6601H266.776V62.4187Z" fill="#252525"/>
<path d="M277.017 62.4187H266.776V72.6601H277.017V62.4187Z" fill="#252525"/>
<path d="M287.259 62.4187H277.017V72.6601H287.259V62.4187Z" fill="#252525"/>
<path d="M297.5 62.4187H287.259V72.6601H297.5V62.4187Z" fill="#252525"/>
<path d="M102.914 72.6601H92.6724V82.9015H102.914V72.6601Z" fill="#252525"/>
<path d="M154.121 72.6601H143.879V82.9015H154.121V72.6601Z" fill="#252525"/>
<path d="M184.845 72.6601H174.603V82.9015H184.845V72.6601Z" fill="#252525"/>
<path d="M195.086 72.6601H184.845V82.9015H195.086V72.6601Z" fill="#252525"/>
<path d="M205.328 72.6601H195.086V82.9015H205.328V72.6601Z" fill="#252525"/>
<path d="M215.569 72.6601H205.328V82.9015H215.569V72.6601Z" fill="#252525"/>
<path d="M61.9483 82.9015H51.7069V93.1429H61.9483V82.9015Z" fill="#252525"/>
<path d="M72.1897 82.9015H61.9483V93.1429H72.1897V82.9015Z" fill="#252525"/>
<path d="M92.6724 82.9015H82.431V93.1429H92.6724V82.9015Z" fill="#252525"/>
<path d="M102.914 82.9015H92.6724V93.1429H102.914V82.9015Z" fill="#252525"/>
<path d="M123.397 82.9015H113.155V93.1429H123.397V82.9015Z" fill="#252525"/>
<path d="M133.638 82.9015H123.397V93.1429H133.638V82.9015Z" fill="#252525"/>
<path d="M154.121 82.9015H143.879V93.1429H154.121V82.9015Z" fill="#252525"/>
<path d="M164.362 82.9015H154.121V93.1429H164.362V82.9015Z" fill="#252525"/>
<path d="M174.603 82.9015H164.362V93.1429H174.603V82.9015Z" fill="#252525"/>
<path d="M184.845 82.9015H174.603V93.1429H184.845V82.9015Z" fill="#252525"/>
<path d="M225.81 82.9015H215.569V93.1429H225.81V82.9015Z" fill="#252525"/>
<path d="M246.293 82.9015H236.052V93.1429H246.293V82.9015Z" fill="#252525"/>
<path d="M266.776 82.9015H256.534V93.1429H266.776V82.9015Z" fill="#252525"/>
<path d="M297.5 82.9015H287.259V93.1429H297.5V82.9015Z" fill="#252525"/>
<path d="M10.7414 93.1429H0.5V103.384H10.7414V93.1429Z" fill="#252525"/>
<path d="M41.4655 93.1429H31.2241V103.384H41.4655V93.1429Z" fill="#252525"/>
<path d="M82.431 93.1429H72.1897V103.384H82.431V93.1429Z" fill="#252525"/>
<path d="M92.6724 93.1429H82.431V103.384H92.6724V93.1429Z" fill="#252525"/>
<path d="M102.914 93.1429H92.6724V103.384H102.914V93.1429Z" fill="#252525"/>
<path d="M164.362 93.1429H154.121V103.384H164.362V93.1429Z" fill="#252525"/>
<path d="M184.845 93.1429H174.603V103.384H184.845V93.1429Z" fill="#252525"/>
<path d="M205.328 93.1429H195.086V103.384H205.328V93.1429Z" fill="#252525"/>
<path d="M225.81 93.1429H215.569V103.384H225.81V93.1429Z" fill="#252525"/>
<path d="M10.7414 103.384H0.5V113.626H10.7414V103.384Z" fill="#252525"/>
<path d="M41.4655 103.384H31.2241V113.626H41.4655V103.384Z" fill="#252525"/>
<path d="M51.7069 103.384H41.4655V113.626H51.7069V103.384Z" fill="#252525"/>
<path d="M72.1897 103.384H61.9483V113.626H72.1897V103.384Z" fill="#252525"/>
<path d="M82.431 103.384H72.1897V113.626H82.431V103.384Z" fill="#252525"/>
<path d="M92.6724 103.384H82.431V113.626H92.6724V103.384Z" fill="#252525"/>
<path d="M113.155 103.384H102.914V113.626H113.155V103.384Z" fill="#252525"/>
<path d="M133.638 103.384H123.397V113.626H133.638V103.384Z" fill="#252525"/>
<path d="M164.362 103.384H154.121V113.626H164.362V103.384Z" fill="#252525"/>
<path d="M195.086 103.384H184.845V113.626H195.086V103.384Z" fill="#252525"/>
<path d="M215.569 103.384H205.328V113.626H215.569V103.384Z" fill="#252525"/>
<path d="M236.052 103.384H225.81V113.626H236.052V103.384Z" fill="#252525"/>
<path d="M256.534 103.384H246.293V113.626H256.534V103.384Z" fill="#252525"/>
<path d="M277.017 103.384H266.776V113.626H277.017V103.384Z" fill="#252525"/>
<path d="M297.5 103.384H287.259V113.626H297.5V103.384Z" fill="#252525"/>
<path d="M61.9483 113.626H51.7069V123.867H61.9483V113.626Z" fill="#252525"/>
<path d="M113.155 113.626H102.914V123.867H113.155V113.626Z" fill="#252525"/>
<path d="M143.879 113.626H133.638V123.867H143.879V113.626Z" fill="#252525"/>
<path d="M154.121 113.626H143.879V123.867H154.121V113.626Z" fill="#252525"/>
<path d="M174.603 113.626H164.362V123.867H174.603V113.626Z" fill="#252525"/>
<path d="M195.086 113.626H184.845V123.867H195.086V113.626Z" fill="#252525"/>
<path d="M205.328 113.626H195.086V123.867H205.328V113.626Z" fill="#252525"/>
<path d="M215.569 113.626H205.328V123.867H215.569V113.626Z" fill="#252525"/>
<path d="M225.81 113.626H215.569V123.867H225.81V113.626Z" fill="#252525"/>
<path d="M246.293 113.626H236.052V123.867H246.293V113.626Z" fill="#252525"/>
<path d="M256.534 113.626H246.293V123.867H256.534V113.626Z" fill="#252525"/>
<path d="M31.2241 123.867H20.9828V134.108H31.2241V123.867Z" fill="#252525"/>
<path d="M72.1897 123.867H61.9483V134.108H72.1897V123.867Z" fill="#252525"/>
<path d="M92.6724 123.867H82.431V134.108H92.6724V123.867Z" fill="#252525"/>
<path d="M102.914 123.867H92.6724V134.108H102.914V123.867Z" fill="#252525"/>
<path d="M113.155 123.867H102.914V134.108H113.155V123.867Z" fill="#252525"/>
<path d="M123.397 123.867H113.155V134.108H123.397V123.867Z" fill="#252525"/>
<path d="M133.638 123.867H123.397V134.108H133.638V123.867Z" fill="#252525"/>
<path d="M154.121 123.867H143.879V134.108H154.121V123.867Z" fill="#252525"/>
<path d="M164.362 123.867H154.121V134.108H164.362V123.867Z" fill="#252525"/>
<path d="M195.086 123.867H184.845V134.108H195.086V123.867Z" fill="#252525"/>
<path d="M205.328 123.867H195.086V134.108H205.328V123.867Z" fill="#252525"/>
<path d="M236.052 123.867H225.81V134.108H236.052V123.867Z" fill="#252525"/>
<path d="M256.534 123.867H246.293V134.108H256.534V123.867Z" fill="#252525"/>
<path d="M277.017 123.867H266.776V134.108H277.017V123.867Z" fill="#252525"/>
<path d="M297.5 123.867H287.259V134.108H297.5V123.867Z" fill="#252525"/>
<path d="M10.7414 134.108H0.5V144.35H10.7414V134.108Z" fill="#252525"/>
<path d="M20.9828 134.108H10.7414V144.35H20.9828V134.108Z" fill="#252525"/>
<path d="M31.2241 134.108H20.9828V144.35H31.2241V134.108Z" fill="#252525"/>
<path d="M41.4655 134.108H31.2241V144.35H41.4655V134.108Z" fill="#252525"/>
<path d="M51.7069 134.108H41.4655V144.35H51.7069V134.108Z" fill="#252525"/>
<path d="M61.9483 134.108H51.7069V144.35H61.9483V134.108Z" fill="#252525"/>
<path d="M164.362 134.108H154.121V144.35H164.362V134.108Z" fill="#252525"/>
<path d="M174.603 134.108H164.362V144.35H174.603V134.108Z" fill="#252525"/>
<path d="M195.086 134.108H184.845V144.35H195.086V134.108Z" fill="#252525"/>
<path d="M205.328 134.108H195.086V144.35H205.328V134.108Z" fill="#252525"/>
<path d="M225.81 134.108H215.569V144.35H225.81V134.108Z" fill="#252525"/>
<path d="M236.052 134.108H225.81V144.35H236.052V134.108Z" fill="#252525"/>
<path d="M246.293 134.108H236.052V144.35H246.293V134.108Z" fill="#252525"/>
<path d="M287.259 134.108H277.017V144.35H287.259V134.108Z" fill="#252525"/>
<path d="M297.5 134.108H287.259V144.35H297.5V134.108Z" fill="#252525"/>
<path d="M20.9828 144.35H10.7414V154.591H20.9828V144.35Z" fill="#252525"/>
<path d="M41.4655 144.35H31.2241V154.591H41.4655V144.35Z" fill="#252525"/>
<path d="M51.7069 144.35H41.4655V154.591H51.7069V144.35Z" fill="#252525"/>
<path d="M61.9483 144.35H51.7069V154.591H61.9483V144.35Z" fill="#252525"/>
<path d="M72.1897 144.35H61.9483V154.591H72.1897V144.35Z" fill="#252525"/>
<path d="M82.431 144.35H72.1897V154.591H82.431V144.35Z" fill="#252525"/>
<path d="M102.914 144.35H92.6724V154.591H102.914V144.35Z" fill="#252525"/>
<path d="M123.397 144.35H113.155V154.591H123.397V144.35Z" fill="#252525"/>
<path d="M164.362 144.35H154.121V154.591H164.362V144.35Z" fill="#252525"/>
<path d="M174.603 144.35H164.362V154.591H174.603V144.35Z" fill="#252525"/>
<path d="M215.569 144.35H205.328V154.591H215.569V144.35Z" fill="#252525"/>
<path d="M236.052 144.35H225.81V154.591H236.052V144.35Z" fill="#252525"/>
<path d="M256.534 144.35H246.293V154.591H256.534V144.35Z" fill="#252525"/>
<path d="M266.776 144.35H256.534V154.591H266.776V144.35Z" fill="#252525"/>
<path d="M297.5 144.35H287.259V154.591H297.5V144.35Z" fill="#252525"/>
<path d="M20.9828 154.591H10.7414V164.833H20.9828V154.591Z" fill="#252525"/>
<path d="M41.4655 154.591H31.2241V164.833H41.4655V154.591Z" fill="#252525"/>
<path d="M92.6724 154.591H82.431V164.833H92.6724V154.591Z" fill="#252525"/>
<path d="M102.914 154.591H92.6724V164.833H102.914V154.591Z" fill="#252525"/>
<path d="M123.397 154.591H113.155V164.833H123.397V154.591Z" fill="#252525"/>
<path d="M143.879 154.591H133.638V164.833H143.879V154.591Z" fill="#252525"/>
<path d="M154.121 154.591H143.879V164.833H154.121V154.591Z" fill="#252525"/>
<path d="M174.603 154.591H164.362V164.833H174.603V154.591Z" fill="#252525"/>
<path d="M184.845 154.591H174.603V164.833H184.845V154.591Z" fill="#252525"/>
<path d="M205.328 154.591H195.086V164.833H205.328V154.591Z" fill="#252525"/>
<path d="M225.81 154.591H215.569V164.833H225.81V154.591Z" fill="#252525"/>
<path d="M236.052 154.591H225.81V164.833H236.052V154.591Z" fill="#252525"/>
<path d="M256.534 154.591H246.293V164.833H256.534V154.591Z" fill="#252525"/>
<path d="M266.776 154.591H256.534V164.833H266.776V154.591Z" fill="#252525"/>
<path d="M287.259 154.591H277.017V164.833H287.259V154.591Z" fill="#252525"/>
<path d="M10.7414 164.833H0.5V175.074H10.7414V164.833Z" fill="#252525"/>
<path d="M31.2241 164.833H20.9828V175.074H31.2241V164.833Z" fill="#252525"/>
<path d="M51.7069 164.833H41.4655V175.074H51.7069V164.833Z" fill="#252525"/>
<path d="M72.1897 164.833H61.9483V175.074H72.1897V164.833Z" fill="#252525"/>
<path d="M113.155 164.833H102.914V175.074H113.155V164.833Z" fill="#252525"/>
<path d="M133.638 164.833H123.397V175.074H133.638V164.833Z" fill="#252525"/>
<path d="M154.121 164.833H143.879V175.074H154.121V164.833Z" fill="#252525"/>
<path d="M164.362 164.833H154.121V175.074H164.362V164.833Z" fill="#252525"/>
<path d="M174.603 164.833H164.362V175.074H174.603V164.833Z" fill="#252525"/>
<path d="M205.328 164.833H195.086V175.074H205.328V164.833Z" fill="#252525"/>
<path d="M215.569 164.833H205.328V175.074H215.569V164.833Z" fill="#252525"/>
<path d="M225.81 164.833H215.569V175.074H225.81V164.833Z" fill="#252525"/>
<path d="M246.293 164.833H236.052V175.074H246.293V164.833Z" fill="#252525"/>
<path d="M266.776 164.833H256.534V175.074H266.776V164.833Z" fill="#252525"/>
<path d="M20.9828 175.074H10.7414V185.315H20.9828V175.074Z" fill="#252525"/>
<path d="M31.2241 175.074H20.9828V185.315H31.2241V175.074Z" fill="#252525"/>
<path d="M82.431 175.074H72.1897V185.315H82.431V175.074Z" fill="#252525"/>
<path d="M113.155 175.074H102.914V185.315H113.155V175.074Z" fill="#252525"/>
<path d="M133.638 175.074H123.397V185.315H133.638V175.074Z" fill="#252525"/>
<path d="M143.879 175.074H133.638V185.315H143.879V175.074Z" fill="#252525"/>
<path d="M164.362 175.074H154.121V185.315H164.362V175.074Z" fill="#252525"/>
<path d="M174.603 175.074H164.362V185.315H174.603V175.074Z" fill="#252525"/>
<path d="M195.086 175.074H184.845V185.315H195.086V175.074Z" fill="#252525"/>
<path d="M205.328 175.074H195.086V185.315H205.328V175.074Z" fill="#252525"/>
<path d="M236.052 175.074H225.81V185.315H236.052V175.074Z" fill="#252525"/>
<path d="M10.7414 185.315H0.5V195.557H10.7414V185.315Z" fill="#252525"/>
<path d="M20.9828 185.315H10.7414V195.557H20.9828V185.315Z" fill="#252525"/>
<path d="M31.2241 185.315H20.9828V195.557H31.2241V185.315Z" fill="#252525"/>
<path d="M41.4655 185.315H31.2241V195.557H41.4655V185.315Z" fill="#252525"/>
<path d="M51.7069 185.315H41.4655V195.557H51.7069V185.315Z" fill="#252525"/>
<path d="M72.1897 185.315H61.9483V195.557H72.1897V185.315Z" fill="#252525"/>
<path d="M82.431 185.315H72.1897V195.557H82.431V185.315Z" fill="#252525"/>
<path d="M92.6724 185.315H82.431V195.557H92.6724V185.315Z" fill="#252525"/>
<path d="M143.879 185.315H133.638V195.557H143.879V185.315Z" fill="#252525"/>
<path d="M164.362 185.315H154.121V195.557H164.362V185.315Z" fill="#252525"/>
<path d="M184.845 185.315H174.603V195.557H184.845V185.315Z" fill="#252525"/>
<path d="M195.086 185.315H184.845V195.557H195.086V185.315Z" fill="#252525"/>
<path d="M205.328 185.315H195.086V195.557H205.328V185.315Z" fill="#252525"/>
<path d="M215.569 185.315H205.328V195.557H215.569V185.315Z" fill="#252525"/>
<path d="M246.293 185.315H236.052V195.557H246.293V185.315Z" fill="#252525"/>
<path d="M256.534 185.315H246.293V195.557H256.534V185.315Z" fill="#252525"/>
<path d="M10.7414 195.557H0.5V205.798H10.7414V195.557Z" fill="#252525"/>
<path d="M61.9483 195.557H51.7069V205.798H61.9483V195.557Z" fill="#252525"/>
<path d="M92.6724 195.557H82.431V205.798H92.6724V195.557Z" fill="#252525"/>
<path d="M113.155 195.557H102.914V205.798H113.155V195.557Z" fill="#252525"/>
<path d="M123.397 195.557H113.155V205.798H123.397V195.557Z" fill="#252525"/>
<path d="M143.879 195.557H133.638V205.798H143.879V195.557Z" fill="#252525"/>
<path d="M205.328 195.557H195.086V205.798H205.328V195.557Z" fill="#252525"/>
<path d="M266.776 195.557H256.534V205.798H266.776V195.557Z" fill="#252525"/>
<path d="M277.017 195.557H266.776V205.798H277.017V195.557Z" fill="#252525"/>
<path d="M287.259 195.557H277.017V205.798H287.259V195.557Z" fill="#252525"/>
<path d="M31.2241 205.798H20.9828V216.039H31.2241V205.798Z" fill="#252525"/>
<path d="M72.1897 205.798H61.9483V216.039H72.1897V205.798Z" fill="#252525"/>
<path d="M102.914 205.798H92.6724V216.039H102.914V205.798Z" fill="#252525"/>
<path d="M113.155 205.798H102.914V216.039H113.155V205.798Z" fill="#252525"/>
<path d="M143.879 205.798H133.638V216.039H143.879V205.798Z" fill="#252525"/>
<path d="M164.362 205.798H154.121V216.039H164.362V205.798Z" fill="#252525"/>
<path d="M174.603 205.798H164.362V216.039H174.603V205.798Z" fill="#252525"/>
<path d="M184.845 205.798H174.603V216.039H184.845V205.798Z" fill="#252525"/>
<path d="M215.569 205.798H205.328V216.039H215.569V205.798Z" fill="#252525"/>
<path d="M225.81 205.798H215.569V216.039H225.81V205.798Z" fill="#252525"/>
<path d="M236.052 205.798H225.81V216.039H236.052V205.798Z" fill="#252525"/>
<path d="M246.293 205.798H236.052V216.039H246.293V205.798Z" fill="#252525"/>
<path d="M256.534 205.798H246.293V216.039H256.534V205.798Z" fill="#252525"/>
<path d="M287.259 205.798H277.017V216.039H287.259V205.798Z" fill="#252525"/>
<path d="M297.5 205.798H287.259V216.039H297.5V205.798Z" fill="#252525"/>
<path d="M92.6724 216.039H82.431V226.281H92.6724V216.039Z" fill="#252525"/>
<path d="M133.638 216.039H123.397V226.281H133.638V216.039Z" fill="#252525"/>
<path d="M154.121 216.039H143.879V226.281H154.121V216.039Z" fill="#252525"/>
<path d="M164.362 216.039H154.121V226.281H164.362V216.039Z" fill="#252525"/>
<path d="M174.603 216.039H164.362V226.281H174.603V216.039Z" fill="#252525"/>
<path d="M184.845 216.039H174.603V226.281H184.845V216.039Z" fill="#252525"/>
<path d="M195.086 216.039H184.845V226.281H195.086V216.039Z" fill="#252525"/>
<path d="M215.569 216.039H205.328V226.281H215.569V216.039Z" fill="#252525"/>
<path d="M256.534 216.039H246.293V226.281H256.534V216.039Z" fill="#252525"/>
<path d="M277.017 216.039H266.776V226.281H277.017V216.039Z" fill="#252525"/>
<path d="M287.259 216.039H277.017V226.281H287.259V216.039Z" fill="#252525"/>
<path d="M10.7414 226.281H0.5V236.522H10.7414V226.281Z" fill="#252525"/>
<path d="M20.9828 226.281H10.7414V236.522H20.9828V226.281Z" fill="#252525"/>
<path d="M31.2241 226.281H20.9828V236.522H31.2241V226.281Z" fill="#252525"/>
<path d="M41.4655 226.281H31.2241V236.522H41.4655V226.281Z" fill="#252525"/>
<path d="M51.7069 226.281H41.4655V236.522H51.7069V226.281Z" fill="#252525"/>
<path d="M61.9483 226.281H51.7069V236.522H61.9483V226.281Z" fill="#252525"/>
<path d="M72.1897 226.281H61.9483V236.522H72.1897V226.281Z" fill="#252525"/>
<path d="M102.914 226.281H92.6724V236.522H102.914V226.281Z" fill="#252525"/>
<path d="M123.397 226.281H113.155V236.522H123.397V226.281Z" fill="#252525"/>
<path d="M133.638 226.281H123.397V236.522H133.638V226.281Z" fill="#252525"/>
<path d="M154.121 226.281H143.879V236.522H154.121V226.281Z" fill="#252525"/>
<path d="M184.845 226.281H174.603V236.522H184.845V226.281Z" fill="#252525"/>
<path d="M215.569 226.281H205.328V236.522H215.569V226.281Z" fill="#252525"/>
<path d="M236.052 226.281H225.81V236.522H236.052V226.281Z" fill="#252525"/>
<path d="M256.534 226.281H246.293V236.522H256.534V226.281Z" fill="#252525"/>
<path d="M266.776 226.281H256.534V236.522H266.776V226.281Z" fill="#252525"/>
<path d="M297.5 226.281H287.259V236.522H297.5V226.281Z" fill="#252525"/>
<path d="M10.7414 236.522H0.5V246.764H10.7414V236.522Z" fill="#252525"/>
<path d="M72.1897 236.522H61.9483V246.764H72.1897V236.522Z" fill="#252525"/>
<path d="M92.6724 236.522H82.431V246.764H92.6724V236.522Z" fill="#252525"/>
<path d="M113.155 236.522H102.914V246.764H113.155V236.522Z" fill="#252525"/>
<path d="M123.397 236.522H113.155V246.764H123.397V236.522Z" fill="#252525"/>
<path d="M143.879 236.522H133.638V246.764H143.879V236.522Z" fill="#252525"/>
<path d="M184.845 236.522H174.603V246.764H184.845V236.522Z" fill="#252525"/>
<path d="M195.086 236.522H184.845V246.764H195.086V236.522Z" fill="#252525"/>
<path d="M205.328 236.522H195.086V246.764H205.328V236.522Z" fill="#252525"/>
<path d="M215.569 236.522H205.328V246.764H215.569V236.522Z" fill="#252525"/>
<path d="M256.534 236.522H246.293V246.764H256.534V236.522Z" fill="#252525"/>
<path d="M266.776 236.522H256.534V246.764H266.776V236.522Z" fill="#252525"/>
<path d="M287.259 236.522H277.017V246.764H287.259V236.522Z" fill="#252525"/>
<path d="M10.7414 246.764H0.5V257.005H10.7414V246.764Z" fill="#252525"/>
<path d="M31.2241 246.764H20.9828V257.005H31.2241V246.764Z" fill="#252525"/>
<path d="M41.4655 246.764H31.2241V257.005H41.4655V246.764Z" fill="#252525"/>
<path d="M51.7069 246.764H41.4655V257.005H51.7069V246.764Z" fill="#252525"/>
<path d="M72.1897 246.764H61.9483V257.005H72.1897V246.764Z" fill="#252525"/>
<path d="M113.155 246.764H102.914V257.005H113.155V246.764Z" fill="#252525"/>
<path d="M123.397 246.764H113.155V257.005H123.397V246.764Z" fill="#252525"/>
<path d="M154.121 246.764H143.879V257.005H154.121V246.764Z" fill="#252525"/>
<path d="M164.362 246.764H154.121V257.005H164.362V246.764Z" fill="#252525"/>
<path d="M195.086 246.764H184.845V257.005H195.086V246.764Z" fill="#252525"/>
<path d="M205.328 246.764H195.086V257.005H205.328V246.764Z" fill="#252525"/>
<path d="M215.569 246.764H205.328V257.005H215.569V246.764Z" fill="#252525"/>
<path d="M225.81 246.764H215.569V257.005H225.81V246.764Z" fill="#252525"/>
<path d="M236.052 246.764H225.81V257.005H236.052V246.764Z" fill="#252525"/>
<path d="M246.293 246.764H236.052V257.005H246.293V246.764Z" fill="#252525"/>
<path d="M256.534 246.764H246.293V257.005H256.534V246.764Z" fill="#252525"/>
<path d="M266.776 246.764H256.534V257.005H266.776V246.764Z" fill="#252525"/>
<path d="M277.017 246.764H266.776V257.005H277.017V246.764Z" fill="#252525"/>
<path d="M287.259 246.764H277.017V257.005H287.259V246.764Z" fill="#252525"/>
<path d="M297.5 246.764H287.259V257.005H297.5V246.764Z" fill="#252525"/>
<path d="M10.7414 257.005H0.5V267.246H10.7414V257.005Z" fill="#252525"/>
<path d="M31.2241 257.005H20.9828V267.246H31.2241V257.005Z" fill="#252525"/>
<path d="M41.4655 257.005H31.2241V267.246H41.4655V257.005Z" fill="#252525"/>
<path d="M51.7069 257.005H41.4655V267.246H51.7069V257.005Z" fill="#252525"/>
<path d="M72.1897 257.005H61.9483V267.246H72.1897V257.005Z" fill="#252525"/>
<path d="M102.914 257.005H92.6724V267.246H102.914V257.005Z" fill="#252525"/>
<path d="M113.155 257.005H102.914V267.246H113.155V257.005Z" fill="#252525"/>
<path d="M123.397 257.005H113.155V267.246H123.397V257.005Z" fill="#252525"/>
<path d="M133.638 257.005H123.397V267.246H133.638V257.005Z" fill="#252525"/>
<path d="M164.362 257.005H154.121V267.246H164.362V257.005Z" fill="#252525"/>
<path d="M174.603 257.005H164.362V267.246H174.603V257.005Z" fill="#252525"/>
<path d="M195.086 257.005H184.845V267.246H195.086V257.005Z" fill="#252525"/>
<path d="M256.534 257.005H246.293V267.246H256.534V257.005Z" fill="#252525"/>
<path d="M266.776 257.005H256.534V267.246H266.776V257.005Z" fill="#252525"/>
<path d="M10.7414 267.246H0.5V277.488H10.7414V267.246Z" fill="#252525"/>
<path d="M31.2241 267.246H20.9828V277.488H31.2241V267.246Z" fill="#252525"/>
<path d="M41.4655 267.246H31.2241V277.488H41.4655V267.246Z" fill="#252525"/>
<path d="M51.7069 267.246H41.4655V277.488H51.7069V267.246Z" fill="#252525"/>
<path d="M72.1897 267.246H61.9483V277.488H72.1897V267.246Z" fill="#252525"/>
<path d="M113.155 267.246H102.914V277.488H113.155V267.246Z" fill="#252525"/>
<path d="M123.397 267.246H113.155V277.488H123.397V267.246Z" fill="#252525"/>
<path d="M143.879 267.246H133.638V277.488H143.879V267.246Z" fill="#252525"/>
<path d="M154.121 267.246H143.879V277.488H154.121V267.246Z" fill="#252525"/>
<path d="M215.569 267.246H205.328V277.488H215.569V267.246Z" fill="#252525"/>
<path d="M225.81 267.246H215.569V277.488H225.81V267.246Z" fill="#252525"/>
<path d="M246.293 267.246H236.052V277.488H246.293V267.246Z" fill="#252525"/>
<path d="M10.7414 277.488H0.5V287.729H10.7414V277.488Z" fill="#252525"/>
<path d="M72.1897 277.488H61.9483V287.729H72.1897V277.488Z" fill="#252525"/>
<path d="M113.155 277.488H102.914V287.729H113.155V277.488Z" fill="#252525"/>
<path d="M123.397 277.488H113.155V287.729H123.397V277.488Z" fill="#252525"/>
<path d="M133.638 277.488H123.397V287.729H133.638V277.488Z" fill="#252525"/>
<path d="M154.121 277.488H143.879V287.729H154.121V277.488Z" fill="#252525"/>
<path d="M164.362 277.488H154.121V287.729H164.362V277.488Z" fill="#252525"/>
<path d="M174.603 277.488H164.362V287.729H174.603V277.488Z" fill="#252525"/>
<path d="M195.086 277.488H184.845V287.729H195.086V277.488Z" fill="#252525"/>
<path d="M205.328 277.488H195.086V287.729H205.328V277.488Z" fill="#252525"/>
<path d="M225.81 277.488H215.569V287.729H225.81V277.488Z" fill="#252525"/>
<path d="M236.052 277.488H225.81V287.729H236.052V277.488Z" fill="#252525"/>
<path d="M246.293 277.488H236.052V287.729H246.293V277.488Z" fill="#252525"/>
<path d="M256.534 277.488H246.293V287.729H256.534V277.488Z" fill="#252525"/>
<path d="M287.259 277.488H277.017V287.729H287.259V277.488Z" fill="#252525"/>
<path d="M297.5 277.488H287.259V287.729H297.5V277.488Z" fill="#252525"/>
<path d="M10.7414 287.729H0.5V297.97H10.7414V287.729Z" fill="#252525"/>
<path d="M20.9828 287.729H10.7414V297.97H20.9828V287.729Z" fill="#252525"/>
<path d="M31.2241 287.729H20.9828V297.97H31.2241V287.729Z" fill="#252525"/>
<path d="M41.4655 287.729H31.2241V297.97H41.4655V287.729Z" fill="#252525"/>
<path d="M51.7069 287.729H41.4655V297.97H51.7069V287.729Z" fill="#252525"/>
<path d="M61.9483 287.729H51.7069V297.97H61.9483V287.729Z" fill="#252525"/>
<path d="M72.1897 287.729H61.9483V297.97H72.1897V287.729Z" fill="#252525"/>
<path d="M102.914 287.729H92.6724V297.97H102.914V287.729Z" fill="#252525"/>
<path d="M133.638 287.729H123.397V297.97H133.638V287.729Z" fill="#252525"/>
<path d="M154.121 287.729H143.879V297.97H154.121V287.729Z" fill="#252525"/>
<path d="M184.845 287.729H174.603V297.97H184.845V287.729Z" fill="#252525"/>
<path d="M195.086 287.729H184.845V297.97H195.086V287.729Z" fill="#252525"/>
<path d="M205.328 287.729H195.086V297.97H205.328V287.729Z" fill="#252525"/>
<path d="M225.81 287.729H215.569V297.97H225.81V287.729Z" fill="#252525"/>
<path d="M266.776 287.729H256.534V297.97H266.776V287.729Z" fill="#252525"/>
<path d="M277.017 287.729H266.776V297.97H277.017V287.729Z" fill="#252525"/>
</svg>
