<svg width="28" height="28" viewBox="0 0 28 28" fill="none" xmlns="http://www.w3.org/2000/svg">
<path d="M10.9375 3.9375H6.125C5.54484 3.9375 4.98844 4.16797 4.5782 4.5782C4.16797 4.98844 3.9375 5.54484 3.9375 6.125V10.9375C3.9375 11.5177 4.16797 12.0741 4.5782 12.4843C4.98844 12.8945 5.54484 13.125 6.125 13.125H10.9375C11.5177 13.125 12.0741 12.8945 12.4843 12.4843C12.8945 12.0741 13.125 11.5177 13.125 10.9375V6.125C13.125 5.54484 12.8945 4.98844 12.4843 4.5782C12.0741 4.16797 11.5177 3.9375 10.9375 3.9375ZM10.5 10.5H6.5625V6.5625H10.5V10.5ZM10.9375 14.875H6.125C5.54484 14.875 4.98844 15.1055 4.5782 15.5157C4.16797 15.9259 3.9375 16.4823 3.9375 17.0625V21.875C3.9375 22.4552 4.16797 23.0116 4.5782 23.4218C4.98844 23.832 5.54484 24.0625 6.125 24.0625H10.9375C11.5177 24.0625 12.0741 23.832 12.4843 23.4218C12.8945 23.0116 13.125 22.4552 13.125 21.875V17.0625C13.125 16.4823 12.8945 15.9259 12.4843 15.5157C12.0741 15.1055 11.5177 14.875 10.9375 14.875ZM10.5 21.4375H6.5625V17.5H10.5V21.4375ZM21.875 3.9375H17.0625C16.4823 3.9375 15.9259 4.16797 15.5157 4.5782C15.1055 4.98844 14.875 5.54484 14.875 6.125V10.9375C14.875 11.5177 15.1055 12.0741 15.5157 12.4843C15.9259 12.8945 16.4823 13.125 17.0625 13.125H21.875C22.4552 13.125 23.0116 12.8945 23.4218 12.4843C23.832 12.0741 24.0625 11.5177 24.0625 10.9375V6.125C24.0625 5.54484 23.832 4.98844 23.4218 4.5782C23.0116 4.16797 22.4552 3.9375 21.875 3.9375ZM21.4375 10.5H17.5V6.5625H21.4375V10.5ZM14.875 18.8125V16.1875C14.875 15.8394 15.0133 15.5056 15.2594 15.2594C15.5056 15.0133 15.8394 14.875 16.1875 14.875C16.5356 14.875 16.8694 15.0133 17.1156 15.2594C17.3617 15.5056 17.5 15.8394 17.5 16.1875V18.8125C17.5 19.1606 17.3617 19.4944 17.1156 19.7406C16.8694 19.9867 16.5356 20.125 16.1875 20.125C15.8394 20.125 15.5056 19.9867 15.2594 19.7406C15.0133 19.4944 14.875 19.1606 14.875 18.8125ZM24.0625 17.9375C24.0625 18.2856 23.9242 18.6194 23.6781 18.8656C23.4319 19.1117 23.0981 19.25 22.75 19.25H21.4375V22.75C21.4375 23.0981 21.2992 23.4319 21.0531 23.6781C20.8069 23.9242 20.4731 24.0625 20.125 24.0625H16.1875C15.8394 24.0625 15.5056 23.9242 15.2594 23.6781C15.0133 23.4319 14.875 23.0981 14.875 22.75C14.875 22.4019 15.0133 22.0681 15.2594 21.8219C15.5056 21.5758 15.8394 21.4375 16.1875 21.4375H18.8125V16.1875C18.8125 15.8394 18.9508 15.5056 19.1969 15.2594C19.4431 15.0133 19.7769 14.875 20.125 14.875C20.4731 14.875 20.8069 15.0133 21.0531 15.2594C21.2992 15.5056 21.4375 15.8394 21.4375 16.1875V16.625H22.75C23.0981 16.625 23.4319 16.7633 23.6781 17.0094C23.9242 17.2556 24.0625 17.5894 24.0625 17.9375Z" fill="#B0B0B0"/>
</svg>
