<svg width="29" height="28" viewBox="0 0 29 28" fill="none" xmlns="http://www.w3.org/2000/svg">
<path d="M25.4375 4.375V8.75C25.4375 9.0981 25.2992 9.43194 25.0531 9.67808C24.8069 9.92422 24.4731 10.0625 24.125 10.0625C23.7769 10.0625 23.4431 9.92422 23.1969 9.67808C22.9508 9.43194 22.8125 9.0981 22.8125 8.75V5.6875H19.75C19.4019 5.6875 19.0681 5.54922 18.8219 5.30308C18.5758 5.05694 18.4375 4.7231 18.4375 4.375C18.4375 4.0269 18.5758 3.69306 18.8219 3.44692C19.0681 3.20078 19.4019 3.0625 19.75 3.0625H24.125C24.4731 3.0625 24.8069 3.20078 25.0531 3.44692C25.2992 3.69306 25.4375 4.0269 25.4375 4.375ZM9.25 22.3125H6.1875V19.25C6.1875 18.9019 6.04922 18.5681 5.80308 18.3219C5.55694 18.0758 5.2231 17.9375 4.875 17.9375C4.5269 17.9375 4.19306 18.0758 3.94692 18.3219C3.70078 18.5681 3.5625 18.9019 3.5625 19.25V23.625C3.5625 23.9731 3.70078 24.3069 3.94692 24.5531C4.19306 24.7992 4.5269 24.9375 4.875 24.9375H9.25C9.5981 24.9375 9.93194 24.7992 10.1781 24.5531C10.4242 24.3069 10.5625 23.9731 10.5625 23.625C10.5625 23.2769 10.4242 22.9431 10.1781 22.6969C9.93194 22.4508 9.5981 22.3125 9.25 22.3125ZM24.125 17.9375C23.7769 17.9375 23.4431 18.0758 23.1969 18.3219C22.9508 18.5681 22.8125 18.9019 22.8125 19.25V22.3125H19.75C19.4019 22.3125 19.0681 22.4508 18.8219 22.6969C18.5758 22.9431 18.4375 23.2769 18.4375 23.625C18.4375 23.9731 18.5758 24.3069 18.8219 24.5531C19.0681 24.7992 19.4019 24.9375 19.75 24.9375H24.125C24.4731 24.9375 24.8069 24.7992 25.0531 24.5531C25.2992 24.3069 25.4375 23.9731 25.4375 23.625V19.25C25.4375 18.9019 25.2992 18.5681 25.0531 18.3219C24.8069 18.0758 24.4731 17.9375 24.125 17.9375ZM4.875 10.0625C5.2231 10.0625 5.55694 9.92422 5.80308 9.67808C6.04922 9.43194 6.1875 9.0981 6.1875 8.75V5.6875H9.25C9.5981 5.6875 9.93194 5.54922 10.1781 5.30308C10.4242 5.05694 10.5625 4.7231 10.5625 4.375C10.5625 4.0269 10.4242 3.69306 10.1781 3.44692C9.93194 3.20078 9.5981 3.0625 9.25 3.0625H4.875C4.5269 3.0625 4.19306 3.20078 3.94692 3.44692C3.70078 3.69306 3.5625 4.0269 3.5625 4.375V8.75C3.5625 9.0981 3.70078 9.43194 3.94692 9.67808C4.19306 9.92422 4.5269 10.0625 4.875 10.0625ZM9.6875 7.875H19.3125C19.6606 7.875 19.9944 8.01328 20.2406 8.25942C20.4867 8.50556 20.625 8.8394 20.625 9.1875V18.8125C20.625 19.1606 20.4867 19.4944 20.2406 19.7406C19.9944 19.9867 19.6606 20.125 19.3125 20.125H9.6875C9.3394 20.125 9.00556 19.9867 8.75942 19.7406C8.51328 19.4944 8.375 19.1606 8.375 18.8125V9.1875C8.375 8.8394 8.51328 8.50556 8.75942 8.25942C9.00556 8.01328 9.3394 7.875 9.6875 7.875ZM11 17.5H18V10.5H11V17.5Z" fill="#B0B0B0"/>
</svg>
