<svg width="31" height="31" viewBox="0 0 31 31" fill="none" xmlns="http://www.w3.org/2000/svg">
<path d="M15.5 2.42188C12.9134 2.42188 10.3849 3.18889 8.23418 4.62594C6.08349 6.06298 4.40724 8.1055 3.41739 10.4952C2.42753 12.8849 2.16854 15.5145 2.67317 18.0514C3.17779 20.5883 4.42336 22.9186 6.25237 24.7476C8.08138 26.5766 10.4117 27.8222 12.9486 28.3268C15.4855 28.8315 18.1151 28.5725 20.5048 27.5826C22.8945 26.5928 24.937 24.9165 26.3741 22.7658C27.8111 20.6151 28.5781 18.0866 28.5781 15.5C28.5743 12.0326 27.1952 8.70841 24.7434 6.25662C22.2916 3.80483 18.9674 2.42572 15.5 2.42188ZM9.63543 23.8034C10.31 22.881 11.1926 22.1308 12.2116 21.6136C13.2306 21.0964 14.3573 20.8268 15.5 20.8268C16.6427 20.8268 17.7694 21.0964 18.7884 21.6136C19.8073 22.1308 20.69 22.881 21.3646 23.8034C19.6506 25.0189 17.6012 25.6718 15.5 25.6718C13.3987 25.6718 11.3494 25.0189 9.63543 23.8034ZM12.1094 14.5312C12.1094 13.8606 12.3082 13.2051 12.6808 12.6475C13.0534 12.0899 13.5829 11.6553 14.2025 11.3987C14.822 11.1421 15.5038 11.0749 16.1615 11.2058C16.8192 11.3366 17.4233 11.6595 17.8975 12.1337C18.3717 12.6079 18.6946 13.2121 18.8255 13.8698C18.9563 14.5275 18.8892 15.2092 18.6325 15.8288C18.3759 16.4483 17.9413 16.9779 17.3837 17.3505C16.8261 17.723 16.1706 17.9219 15.5 17.9219C14.6007 17.9219 13.7383 17.5647 13.1025 16.9288C12.4666 16.2929 12.1094 15.4305 12.1094 14.5312ZM23.4922 21.7896C22.5503 20.5917 21.3498 19.6222 19.9805 18.9536C20.8532 18.0698 21.445 16.9477 21.6816 15.7284C21.9182 14.5091 21.7889 13.2471 21.3099 12.1011C20.831 10.9551 20.0239 9.97637 18.9901 9.28796C17.9563 8.59955 16.742 8.23224 15.5 8.23224C14.258 8.23224 13.0437 8.59955 12.0099 9.28796C10.9761 9.97637 10.169 10.9551 9.69005 12.1011C9.21114 13.2471 9.08183 14.5091 9.31839 15.7284C9.55495 16.9477 10.1468 18.0698 11.0195 18.9536C9.65016 19.6222 8.44966 20.5917 7.50781 21.7896C6.32478 20.2899 5.58792 18.4874 5.38159 16.5885C5.17525 14.6895 5.50778 12.7708 6.34111 11.0521C7.17443 9.3333 8.47488 7.8839 10.0936 6.86979C11.7123 5.85568 13.5838 5.31784 15.4939 5.31784C17.4041 5.31784 19.2756 5.85568 20.8943 6.86979C22.513 7.8839 23.8135 9.3333 24.6468 11.0521C25.4801 12.7708 25.8126 14.6895 25.6063 16.5885C25.4 18.4874 24.6631 20.2899 23.4801 21.7896H23.4922Z" fill="#252525"/>
</svg>
